<?xml version="1.0" standalone="no"?>
<!DOCTYPE svg PUBLIC "-//W3C//DTD SVG 1.1//EN" "http://www.w3.org/Graphics/SVG/1.1/DTD/svg11.dtd">
<svg xmlns="http://www.w3.org/2000/svg">
<defs >
<font id="Barlow" horiz-adv-x="506" ><font-face
    font-family="Barlow SemiBold"
    units-per-em="1000"
    panose-1="0 0 7 0 0 0 0 0 0 0"
    ascent="1000"
    descent="-200"
    alphabetic="0" />
<glyph unicode=" " glyph-name="space" horiz-adv-x="194" />
<glyph unicode="!" glyph-name="exclam" horiz-adv-x="325" d="M129 236T129 248L173 688Q174 693 177 696T186 700H275Q280 700 283 697T285 688L221 248Q220 243 216 240T207 236H140Q129 236 129 248ZM112 2T96 19T79 62Q79 97 101 120T156 143Q184 143 201
127T218 83Q218 49 195 26T139 2Q112 2 96 19Z" />
<glyph unicode="&quot;" glyph-name="quotedbl" horiz-adv-x="315" d="M77 477T74 480T71 489L85 685Q87 697 97 697H183Q194 697 192 685L158 489Q157 484 153 481T144 477H82Q77 477 74 480ZM247 477T244 480T240 489L255 685Q257 697 267 697H352Q364 697 362
685L328 489Q327 484 323 481T314 477H252Q247 477 244 480Z" />
<glyph unicode="#" glyph-name="numbersign" horiz-adv-x="657" d="M633 420T630 417T621 413H549Q543 413 543 408L510 288Q508 283 513 283H570Q575 283 578 280T580 271L571 196Q570 191 567 188T558 184H486Q480 184 480 179L441 34Q438 23 427 23L338 24Q325
24 329 37L367 179Q369 184 364 184H248Q243 184 241 179L202 34Q199 23 188 23L99 24Q87 24 90 37L129 179Q129 184 125 184H69Q64 184 61 187T59 196L68 271Q69 276 72 279T81 283H152Q157 283 159 288L191 408Q191 413 187 413H133Q128 413 125 416T123 425L132
501Q133 506 136 509T145 513H215Q220 513 222 518L261 663Q264 674 275 674L364 673Q376 673 373 660L334 518Q334 513 337 513H454Q460 513 460 518L499 663Q502 674 513 674L603 673Q615 673 612 660L573 518Q571 513 576 513H634Q639 513 642 510T644 501L634
425Q633 420 630 417ZM397 283T397 288L429 408Q431 413 426 413H311Q306 413 304 408L271 288Q271 283 274 283H391Q397 283 397 288Z" />
<glyph unicode="$" glyph-name="dollar" horiz-adv-x="550" d="M501 109T448 58T308 -4Q303 -6 302 -10L295 -76Q294 -81 291 -84T282 -88H206Q201 -88 198 -85T196 -76L206 -9Q206 -5 202 -3Q126 9 85 53T43 165Q43 173 45 193L48 218Q49 223 52 226T61 230H143Q148
230 151 227T153 218L151 199Q150 195 150 186Q150 145 184 119T278 92Q339 92 372 121T405 196Q405 231 376 253T271 308Q214 332 178 353T118 407T94 491Q94 578 146 634T286 704Q291 706 292 710L299 784Q300 789 303 792T312 796H388Q393 796 396 793T398 784L387
709Q386 705 391 703Q464 690 505 644T547 530Q547 520 545 502L543 485Q542 480 538 477T529 473H447Q442 473 439 476T437 485L438 496Q439 501 439 511Q439 553 408 580T319 608Q263 608 232 581T200 506Q200 482 214 465T255 434T336 397Q394 372 428 352T488
298T513 214Q513 206 511 188Q501 109 448 58Z" />
<glyph unicode="%" glyph-name="percent" horiz-adv-x="808" d="M193 404T156 441T119 536Q119 582 142 621T204 685T288 709Q344 709 381 671T419 575Q419 530 396 491T333 428T250 404Q193 404 156 441ZM160 0T160 6Q160 10 163 14L612 692Q617 700 627 700H683Q690
700 691 696T690 686L242 8Q236 0 226 0H169Q160 0 160 6ZM294 474T321 502T349 567Q349 598 330 618T279 639Q243 639 216 612T188 546Q188 515 208 495T259 474Q294 474 321 502ZM517 -9T480 29T442 124Q442 169 465 209T528 272T611 296Q666 296 703 258T741
164Q741 118 718 78T656 15T573 -9Q517 -9 480 29ZM618 61T645 89T672 155Q672 186 652 206T602 226Q565 226 538 199T510 134Q510 102 530 82T582 61Q618 61 645 89Z" />
<glyph unicode="&amp;" glyph-name="ampersand" horiz-adv-x="668" d="M597 12T597 8Q597 0 587 0H487Q479 0 473 7L436 57Q433 60 429 57Q332 -8 225 -8Q143 -8 92 29T40 139Q40 155 41 163Q50 231 92 278T201 365Q206 369 203 372Q166 426 152 458T138 520Q138
572 164 615T238 683T345 708Q423 708 470 667T518 559Q518 489 477 438T364 345Q359 342 362 338L390 299L456 211Q458 207 462 211Q486 233 532 291Q540 302 548 295L610 256Q615 253 615 248Q615 245 612 240Q557 170 517 130Q516 129 516 127Q516 125 519 120Q536
96 549 79T571 48L595 15Q597 12 597 8ZM298 602T274 581T250 524Q250 510 260 490T299 427Q300 423 305 426Q354 455 379 482T405 543Q405 570 386 586T335 602Q298 602 274 581ZM297 90T371 135Q375 139 372 142Q338 189 319 214Q310 228 301 238Q280 266 268
284Q266 287 261 285Q216 257 190 231T157 173Q155 161 155 155Q155 125 177 108T239 90Q297 90 371 135Z" />
<glyph unicode="&apos;" glyph-name="quotesingle" horiz-adv-x="151" d="M77 480T74 483T71 492L85 687Q87 699 97 699H189Q200 699 198 687L163 492Q162 487 158 484T149 480H82Q77 480 74 483Z" />
<glyph unicode="(" glyph-name="parenleft" horiz-adv-x="307" d="M89 -96T86 -89Q52 -30 32 49T12 221Q12 277 19 330Q35 459 81 568T190 753Q196 760 205 760H290Q297 760 299 756T297 746Q243 666 202 560T145 330Q138 275 138 219Q138 52 196 -82L197 -86Q197
-90 194 -93T185 -96H99Q89 -96 86 -89Z" />
<glyph unicode=")" glyph-name="parenright" horiz-adv-x="307" d="M261 760T264 753Q298 694 318 615T338 443Q338 388 331 335Q315 206 269 97T159 -89Q153 -96 144 -96H59Q52 -96 50 -92T52 -82Q106 -2 147 104T204 334Q211 390 211 449Q211 536 196 612T154
746Q153 748 153 751Q153 755 156 757T164 760H251Q261 760 264 753Z" />
<glyph unicode="*" glyph-name="asterisk" horiz-adv-x="386" d="M190 393T190 405L203 505Q203 508 201 509T197 509L101 455Q97 453 95 453Q89 453 86 460L69 500Q68 502 68 505Q68 512 76 517L173 568Q178 571 173 574L89 623Q84 626 84 632Q84 637 86 640L113
680Q116 685 120 686T130 685L212 632Q214 631 216 632T219 636L231 735Q232 740 235 743T244 747H287Q292 747 295 744T297 735L285 636Q284 633 286 632T290 632L386 685Q390 687 392 687Q399 687 402 680L418 640Q419 638 419 635Q419 626 411 623L314 574Q310
571 313 568L398 517Q404 514 404 508Q404 505 401 500L375 460Q371 455 367 454T358 455L275 509Q273 511 271 510T269 505L256 405Q255 400 252 397T243 393H201Q190 393 190 405Z" />
<glyph unicode="+" glyph-name="plus" horiz-adv-x="476" d="M462 355T465 352T467 343L458 267Q457 262 454 259T445 255H303Q299 255 297 250L280 106Q279 101 276 98T267 94H194Q189 94 186 97T184 106L201 250Q203 255 197 255H55Q44 255 44 267L54 343Q55
348 58 351T67 355H209Q215 355 215 360L233 508Q234 513 237 516T246 520H319Q324 520 327 517T329 508L311 360Q311 355 315 355H457Q462 355 465 352Z" />
<glyph unicode="," glyph-name="comma" horiz-adv-x="257" d="M16 -91T20 -78L83 146Q86 157 97 157H174Q187 157 183 144L98 -81Q94 -91 83 -91H29Q16 -91 20 -78Z" />
<glyph unicode="-" glyph-name="hyphen" horiz-adv-x="392" d="M49 251T46 254T44 263L53 339Q54 344 57 347T66 351H372Q377 351 380 348T382 339L373 263Q372 258 369 255T360 251H54Q49 251 46 254Z" />
<glyph unicode="." glyph-name="period" horiz-adv-x="264" d="M81 -2T64 15T47 59Q47 94 70 117T126 140Q153 140 169 124T186 80Q186 45 163 22T109 -2Q81 -2 64 15Z" />
<glyph unicode="/" glyph-name="slash" horiz-adv-x="433" d="M10 0T8 4T9 14L329 690Q333 700 343 700H431Q437 700 439 697T439 686L119 10Q115 0 105 0H16Q10 0 8 4Z" />
<glyph unicode="0" glyph-name="zero" horiz-adv-x="551" d="M162 -11T110 38T58 172Q58 196 60 209L94 491Q107 591 173 649T342 708Q434 708 487 660T540 526Q540 503 538 491L504 209Q491 108 424 49T254 -11Q162 -11 110 38ZM316 90T350 120T391 203L426 495Q427
502 427 514Q427 558 401 583T330 608Q280 608 247 578T207 495L171 203Q170 197 170 185Q170 141 195 116T266 90Q316 90 350 120Z" />
<glyph unicode="1" glyph-name="one" horiz-adv-x="342" d="M228 700T236 700H329Q340 700 340 688L257 12Q256 7 252 4T243 0H154Q149 0 146 3T144 12L214 580Q214 586 208 584L108 553Q106 552 103 552Q99 552 97 555T95 563L101 629Q101 639 110 643L221 697Q228
700 236 700Z" />
<glyph unicode="2" glyph-name="two" horiz-adv-x="535" d="M190 104T190 102T194 100H470Q475 100 478 97T480 88L471 12Q470 7 467 4T458 0H41Q36 0 33 3T31 12L39 84Q40 92 47 99Q107 156 241 297L295 353Q397 460 404 515Q409 556 384 582T314 608Q269 608
239 582T203 513L199 487Q199 482 195 479T186 475H96Q91 475 88 478T86 487L91 530Q104 611 170 659T327 708Q386 708 429 687T496 628T519 543Q519 447 410 328Q352 262 230 144Q230 144 192 106Q190 104 190 102Z" />
<glyph unicode="3" glyph-name="three" horiz-adv-x="515" d="M476 299T476 263Q476 237 474 223Q467 168 445 124Q416 62 360 27T231 -8Q159 -8 111 29T48 131Q43 151 43 183Q43 202 44 212Q46 224 58 224H148Q160 224 158 212Q156 183 161 161Q166 129 187 111T243
92Q307 92 339 152Q354 180 361 227Q363 249 363 259Q363 291 356 311Q337 367 276 367Q266 367 256 362T229 347Q225 345 222 345Q216 345 213 351L176 415Q174 419 174 422Q174 427 179 432L359 594Q361 596 361 598T357 600H114Q109 600 106 603T104 612L114
688Q114 693 118 696T127 700H514Q519 700 522 697T524 688L513 601Q511 591 506 586L349 442Q345 438 352 436Q441 423 468 333Q476 299 476 263Z" />
<glyph unicode="4" glyph-name="four" horiz-adv-x="568" d="M527 288T530 285T532 276L523 196Q522 191 519 188T510 184H469Q465 184 463 179L443 12Q442 7 439 4T430 0H340Q335 0 332 3T330 12L351 179Q351 184 347 184H52Q47 184 44 187T42 196L49 260Q51
268 54 275L289 691Q293 700 303 700H398Q405 700 407 697T405 686L185 294Q184 292 184 290T187 288H359Q363 288 365 293L382 429Q382 434 386 437T395 441H484Q489 441 492 438T494 429L477 293Q477 288 482 288H522Q527 288 530 285Z" />
<glyph unicode="5" glyph-name="five" horiz-adv-x="514" d="M487 291T487 265Q487 242 484 221Q477 171 460 132Q432 68 374 31T242 -7Q170 -7 121 29T58 128Q54 145 52 178Q52 191 65 191H157Q166 191 168 180L171 162Q178 129 199 111T253 93Q287 93 314 112T354
166Q366 190 370 221Q371 229 371 245Q371 266 369 278Q367 311 345 328T287 346Q255 346 226 331T186 290Q180 280 171 280H77Q72 280 69 283T67 292L116 688Q116 693 120 696T129 700H506Q511 700 514 697T516 688L507 612Q506 607 503 604T494 600H222Q217 600
217 595L194 415Q193 411 195 411T199 412Q249 447 313 447Q381 447 427 412T483 314Q487 291 487 265Z" />
<glyph unicode="6" glyph-name="six" horiz-adv-x="513" d="M486 308T486 263Q486 242 483 221Q475 159 450 114Q420 56 367 25T243 -7Q171 -7 123 27T61 124Q55 151 55 182Q55 208 57 222L95 527Q105 609 168 658T325 708Q408 708 457 666T507 555Q507 540 506
532L503 510Q502 505 499 502T490 498H401Q390 498 390 510L391 517Q392 522 392 531Q392 565 370 586T311 608Q270 608 241 582T206 513L192 404Q192 397 198 401Q244 442 315 442Q372 442 412 417T472 345Q486 308 486 263ZM366 179T370 219Q372 237 372 244Q372
274 363 296Q343 344 285 344Q225 344 193 294Q174 262 169 216Q167 198 167 190Q167 167 173 149Q191 94 254 94Q314 94 347 148Q366 179 370 219Z" />
<glyph unicode="7" glyph-name="seven" horiz-adv-x="473" d="M98 0T104 14L389 594Q392 600 386 600H177Q175 600 174 599T172 595L166 550Q166 545 162 542T153 538H84Q79 538 76 541T73 550L90 688Q91 693 94 696T103 700H512Q517 700 520 697T522 688L512
608Q512 603 507 593L222 10Q221 6 217 3T208 0H112Q98 0 104 14Z" />
<glyph unicode="8" glyph-name="eight" horiz-adv-x="517" d="M480 273T480 233Q480 224 478 202Q470 141 439 93Q408 46 357 19T239 -8Q174 -8 127 18T60 96Q46 132 46 173Q46 183 48 203Q55 258 83 305Q108 345 146 367Q151 370 148 374Q125 393 110 424Q95
459 95 495Q95 532 108 567T146 630Q177 669 224 690T327 712Q384 712 424 691T487 630Q508 591 508 541Q508 474 469 421Q446 391 420 375Q416 371 420 368Q454 346 469 303Q480 273 480 233ZM211 538T208 515Q207 509 207 498Q207 474 217 454Q235 413 289 413Q341
413 374 455Q391 476 396 516Q397 520 397 528Q397 546 391 562Q381 585 362 598T313 612Q286 612 263 599T225 561Q211 538 208 515ZM358 161T366 212Q367 221 367 237Q367 267 359 284Q341 330 279 330Q221 330 190 286Q163 249 163 185Q163 158 173 136Q194
92 251 92Q306 92 335 133Q358 161 366 212Z" />
<glyph unicode="9" glyph-name="nine" horiz-adv-x="512" d="M505 552T505 521Q505 501 502 478L465 173Q455 91 391 42T235 -8Q152 -8 103 33T53 144Q53 160 54 168L56 190Q57 195 60 198T69 202H159Q164 202 167 199T169 190L168 183Q167 178 167 169Q167 135
189 114T247 92Q289 92 319 118T354 187L367 297Q368 300 366 301T362 300Q315 258 243 258Q186 258 146 283T87 355Q73 389 73 438Q73 451 75 479Q82 538 108 586Q138 643 192 675T316 707Q389 707 436 673T498 576Q505 552 505 521ZM385 440T390 484Q391 492
391 508Q391 531 386 551Q369 606 305 606Q244 606 211 552Q187 507 187 457Q187 427 196 404Q218 356 274 356Q335 356 365 406Q385 440 390 484Z" />
<glyph unicode=":" glyph-name="colon" horiz-adv-x="344" d="M165 338T148 355T131 399Q131 434 154 457T210 480Q237 480 253 464T270 420Q270 385 247 362T193 338Q165 338 148 355ZM124 8T107 25T90 69Q90 104 113 127T169 150Q196 150 212 134T229 90Q229
55 206 32T152 8Q124 8 107 25Z" />
<glyph unicode=";" glyph-name="semicolon" horiz-adv-x="304" d="M144 325T125 344T105 392Q105 427 132 453T194 479Q222 479 242 459T263 411Q263 377 237 351T175 325Q144 325 125 344ZM57 -89T55 -86T53 -76L104 143Q107 154 117 154H195Q209 154 205 141L129
-78Q124 -89 115 -89H63Q57 -89 55 -86Z" />
<glyph unicode="&lt;" glyph-name="less" horiz-adv-x="476" d="M429 38T425 36T416 36L47 218Q39 223 40 232L50 313Q52 323 61 327L474 509Q478 511 480 511Q483 511 485 508T486 500L476 413Q474 404 465 399L168 276Q162 273 167 270L434 146Q443 142 441
132L430 45Q429 38 425 36Z" />
<glyph unicode="=" glyph-name="equal" horiz-adv-x="476" d="M56 353T56 365L66 441Q67 446 70 449T79 453H469Q474 453 477 450T479 441L470 365Q469 360 466 357T457 353H67Q56 353 56 365ZM288 411T288 423L298 499Q299 504 302 507T311 511H701Q706 511 709
508T711 499L702 423Q701 418 698 415T689 411H299Q288 411 288 423Z" />
<glyph unicode="&gt;" glyph-name="greater" horiz-adv-x="476" d="M26 34T24 34Q15 34 17 45L28 132Q30 142 38 146L336 270Q342 273 337 276L69 399Q62 403 62 413L73 500Q74 507 78 509T88 509L456 327Q465 323 463 313L453 232Q453 223 443 218L30 36Q26 34 24 34Z" />
<glyph unicode="?" glyph-name="question" horiz-adv-x="485" d="M182 214T179 217T177 226L182 267Q188 315 215 344T291 407Q333 436 355 459T382 518L383 530Q383 564 360 584T297 604Q252 604 222 579T187 515L185 494Q184 483 172 483L83 487Q78 487 75 491T73
500L75 515Q82 572 114 616T198 685T313 710Q399 710 449 667T499 549Q499 540 497 522Q491 477 473 446T431 394T372 349Q334 324 316 306T294 260L290 226Q289 221 286 218T277 214H187Q182 214 179 217ZM175 -1T158 16T141 60Q141 95 164 117T220 140Q247 140
263 124T280 81Q280 46 257 23T203 -1Q175 -1 158 16Z" />
<glyph unicode="@" glyph-name="at" horiz-adv-x="796" d="M585 643T647 611T743 521T776 386Q776 345 763 288Q739 192 687 139T562 86Q493 86 463 130Q460 133 457 130Q436 109 408 98T352 87Q299 87 268 114T236 185Q234 216 249 271Q262 323 277 355Q299 403
340 429T425 455Q475 455 497 424Q502 419 503 426L507 440Q510 451 521 451H574Q586 451 583 438L534 245Q530 225 530 216Q530 190 542 175T577 159Q611 159 637 191T680 284Q693 333 693 376Q693 468 638 518T486 568Q406 568 334 532T209 427T139 263Q131 227
131 188Q131 94 185 40T334 -15Q381 -15 424 -4T493 24Q497 27 500 27Q505 27 508 22L533 -17Q535 -19 535 -24Q535 -30 529 -33Q491 -60 433 -76T315 -92Q235 -92 176 -59T84 34T52 177Q52 224 62 273Q85 384 151 468T310 597T501 643Q585 643 647 611ZM390 155T409
169T440 206Q447 217 452 230T463 272Q470 299 471 311T473 337Q475 359 462 373T424 387Q400 387 380 373T347 337Q337 321 323 268Q312 223 313 206Q313 183 327 169T367 155Q390 155 409 169Z" />
<glyph unicode="A" glyph-name="A" horiz-adv-x="629" d="M463 0T461 10L442 117Q442 118 441 119T438 121H182Q180 121 176 117L131 10Q128 0 117 0H20Q14 0 12 4T12 14L306 690Q311 700 320 700H441Q450 700 452 690L581 14V11Q581 0 569 0H472Q463 0 461 10ZM216
212T222 212H419Q425 212 423 218L365 553Q364 557 362 557T359 553L219 218Q216 212 222 212Z" />
<glyph unicode="B" glyph-name="B" horiz-adv-x="604" d="M469 362T475 359Q555 317 555 225Q555 216 553 194Q541 99 474 50T307 0H63Q58 0 55 3T53 12L136 688Q137 693 140 696T149 700H386Q481 700 533 661T585 543Q585 533 583 511Q570 406 475 365Q469 362
475 359ZM240 600T239 599T237 595L214 410Q214 405 219 405H349Q401 405 433 430T472 501Q473 506 473 515Q473 555 447 577T373 600H242Q240 600 239 599ZM376 101T409 134T443 222Q443 263 417 286T343 309H207Q203 309 201 304L177 106Q177 101 181 101H320Q376
101 409 134Z" />
<glyph unicode="C" glyph-name="C" horiz-adv-x="589" d="M178 -8T120 46T61 191Q61 215 63 227L93 474Q101 544 138 597T234 679T365 708Q465 708 523 656T582 516Q582 505 580 483Q579 478 576 475T567 471L477 466Q466 466 467 477Q468 484 468 498Q468 549
438 578T353 608Q294 608 254 572T206 477L175 222Q174 215 174 201Q174 151 205 122T290 92Q348 92 388 127T436 222Q436 233 449 233L537 229Q542 229 545 226T548 219Q540 151 503 100T408 20T277 -8Q178 -8 120 46Z" />
<glyph unicode="D" glyph-name="D" horiz-adv-x="599" d="M58 0T55 3T53 12L136 688Q137 693 140 696T149 700H386Q481 700 537 653T593 525Q593 515 591 495L556 205Q544 111 474 56T300 0H63Q58 0 55 3ZM175 100T181 100H317Q368 100 403 133T445 223L477 476Q478
483 478 497Q478 545 451 572T377 600H242Q240 600 239 599T237 595L177 105Q175 100 181 100Z" />
<glyph unicode="E" glyph-name="E" horiz-adv-x="574" d="M585 607T582 604T573 600H242Q240 600 239 599T237 595L214 408Q214 403 218 403H440Q451 403 451 391L441 315Q440 310 437 307T428 303H206Q201 303 201 298L177 105Q175 100 181 100H512Q517 100 520
97T522 88L513 12Q512 7 509 4T500 0H63Q58 0 55 3T53 12L136 688Q137 693 140 696T149 700H585Q590 700 593 697T596 688L586 612Q585 607 582 604Z" />
<glyph unicode="F" glyph-name="F" horiz-adv-x="546" d="M585 607T581 604T572 600H242Q240 600 239 599T237 595L214 408Q214 403 218 403H440Q451 403 451 391L441 315Q440 310 437 307T428 303H206Q201 303 201 298L165 12Q165 7 161 4T152 0H63Q58 0 55 3T53
12L136 688Q137 693 140 696T149 700H585Q590 700 593 697T595 688L585 612Q585 607 581 604Z" />
<glyph unicode="G" glyph-name="G" horiz-adv-x="594" d="M177 -8T119 47T61 194Q61 205 63 229L93 471Q101 542 138 595T234 678T365 708Q431 708 480 684T555 615T582 515Q582 507 580 487L579 479Q578 474 575 471T566 467H477Q472 467 469 470T467 479L468
484Q469 490 469 502Q469 549 438 578T353 608Q294 608 254 572T206 475L175 225Q174 218 174 205Q174 153 207 123T295 92Q352 92 389 123T434 210L442 272Q442 277 438 277H318Q313 277 310 280T308 289L317 363Q318 368 321 371T330 375H554Q559 375 562 372T564
363L549 235Q535 120 462 56T277 -8Q177 -8 119 47Z" />
<glyph unicode="H" glyph-name="H" horiz-adv-x="618" d="M506 693T510 696T519 700H608Q613 700 616 697T618 688L535 12Q534 7 531 4T522 0H433Q422 0 422 12L458 298Q458 303 453 303H206Q201 303 201 298L165 12Q165 7 161 4T152 0H63Q58 0 55 3T53 12L136
688Q137 693 140 696T149 700H238Q243 700 246 697T248 688L214 408Q214 403 218 403H466Q471 403 471 408L505 688Q506 693 510 696Z" />
<glyph unicode="I" glyph-name="I" horiz-adv-x="254" d="M58 0T55 3T53 12L136 688Q137 693 140 696T149 700H238Q243 700 246 697T248 688L165 12Q165 7 161 4T152 0H63Q58 0 55 3Z" />
<glyph unicode="J" glyph-name="J" horiz-adv-x="563" d="M139 -8T83 43T26 181Q26 191 28 213L36 280Q37 285 40 288T49 292H139Q144 292 147 289T149 280L141 213Q140 206 140 194Q140 147 169 120T249 92Q304 92 342 125T388 213L446 688Q447 693 450 696T459
700H548Q553 700 556 697T558 688L500 213Q492 147 456 97T363 20T237 -8Q139 -8 83 43Z" />
<glyph unicode="K" glyph-name="K" horiz-adv-x="602" d="M58 0T55 3T53 12L136 688Q137 693 140 696T149 700H238Q243 700 246 697T248 688L212 389Q211 386 213 385T217 386L507 693Q514 700 522 700H623Q632 700 632 694Q632 689 628 685L372 404Q368 400 370
397L561 14Q563 10 563 8Q563 0 552 0H450Q442 0 437 8L283 316Q282 318 280 318T277 317L194 231L191 224L165 12Q165 7 161 4T152 0H63Q58 0 55 3Z" />
<glyph unicode="L" glyph-name="L" horiz-adv-x="553" d="M58 0T55 3T53 12L136 688Q137 693 140 696T149 700H238Q243 700 246 697T248 688L177 105Q175 100 181 100H506Q511 100 514 97T516 88L507 12Q506 7 503 4T494 0H63Q58 0 55 3Z" />
<glyph unicode="M" glyph-name="M" horiz-adv-x="693" d="M579 700T588 700H678Q683 700 686 697T688 688L605 12Q604 7 601 4T592 0H502Q497 0 494 3T492 12L551 489Q551 492 549 493T545 491L400 299Q395 291 386 291H341Q332 291 329 299L230 490Q229 493 227
492T224 488L165 12Q165 7 161 4T152 0H63Q58 0 55 3T53 12L136 688Q137 693 140 696T149 700H238Q248 700 251 692L379 445Q380 443 382 443T385 445L574 692Q579 700 588 700Z" />
<glyph unicode="N" glyph-name="N" horiz-adv-x="649" d="M532 693T535 696T544 700H633Q638 700 641 697T643 688L560 12Q559 7 556 4T547 0H461Q451 0 448 8L227 480Q225 483 223 483T221 478L165 12Q165 7 161 4T152 0H63Q58 0 55 3T53 12L136 688Q137 693
140 696T149 700H235Q245 700 248 692L468 220Q470 217 472 217T474 222L531 688Q532 693 535 696Z" />
<glyph unicode="O" glyph-name="O" horiz-adv-x="603" d="M180 -10T121 46T62 198Q62 223 64 236L92 464Q101 536 138 591T235 677T368 708Q469 708 528 652T588 501Q588 477 586 464L558 236Q549 163 511 107T413 21T280 -10Q180 -10 121 46ZM353 90T395 128T445
232L473 465Q475 481 475 489Q475 543 443 575T356 608Q295 608 254 569T205 465L176 232Q174 216 174 208Q174 154 206 122T292 90Q353 90 395 128Z" />
<glyph unicode="P" glyph-name="P" horiz-adv-x="577" d="M494 701T543 653T592 524Q592 514 590 492Q579 399 514 343T353 286H198Q193 286 193 281L160 12Q159 7 155 4T146 0H57Q52 0 49 3T47 12L130 689Q131 694 134 697T143 701H410Q494 701 543 653ZM408
380T443 415T478 506Q478 550 452 575T381 601H237Q233 601 231 596L205 385Q205 380 210 380H354Q408 380 443 415Z" />
<glyph unicode="Q" glyph-name="Q" horiz-adv-x="570" d="M450 708T507 652T564 502Q564 490 562 466L532 226Q522 138 466 77T326 -2Q321 -4 321 -8L311 -92Q310 -97 307 -100T298 -104H208Q203 -104 200 -101T198 -92L209 -8Q209 -4 205 -2Q134 13 93 64T52
191Q52 214 54 226L83 466Q92 538 128 593T223 678T352 708Q450 708 507 652ZM450 472Q451 480 451 494Q451 546 421 577T339 608Q283 608 244 571T197 472L167 228Q166 220 166 206Q166 154 195 123T276 92Q334 92 373 129T420 228L450 472Z" />
<glyph unicode="R" glyph-name="R" horiz-adv-x="595" d="M423 0T420 9L327 297Q327 299 326 300T322 301H206Q202 301 200 296L165 12Q165 7 161 4T152 0H63Q58 0 55 3T53 12L136 688Q137 693 140 696T149 700H416Q497 700 545 653T593 528Q593 518 591 496Q583
427 543 379T439 311Q435 311 435 305L536 14Q537 12 537 9Q537 0 526 0H433Q423 0 420 9ZM240 600T239 599T237 595L213 396Q211 391 217 391H362Q413 391 446 424T480 510Q480 551 455 575T388 600H242Q240 600 239 599Z" />
<glyph unicode="S" glyph-name="S" horiz-adv-x="573" d="M164 -8T104 39T43 166Q43 175 45 193L48 218Q49 223 52 226T61 230H148Q153 230 156 227T158 218L155 199L154 188Q154 146 190 119T291 92Q354 92 388 122T422 197Q422 231 391 253T281 308Q221 332
183 353T120 408T94 492Q94 558 126 607T216 682T347 708Q449 708 509 659T570 528Q570 520 568 502L566 485Q565 480 562 477T553 473H465Q460 473 457 476T455 485L457 496L458 508Q458 551 425 579T330 608Q272 608 239 582T205 508Q205 483 220 466T263 434T349
397Q410 372 447 352T510 298T536 213Q536 206 534 188Q523 98 453 45T270 -8Q164 -8 104 39Z" />
<glyph unicode="T" glyph-name="T" horiz-adv-x="562" d="M589 700T592 697T594 688L584 611Q583 606 580 603T571 599H393Q389 599 387 594L316 12Q315 7 312 4T303 0H213Q208 0 205 3T203 12L275 594Q275 599 270 599H99Q94 599 91 602T89 611L98 688Q99 693
102 696T111 700H584Q589 700 592 697Z" />
<glyph unicode="U" glyph-name="U" horiz-adv-x="617" d="M188 -8T130 46T71 193Q71 203 73 227L130 688Q131 693 134 696T143 700H232Q243 700 243 688L186 225Q185 218 185 204Q185 153 216 123T300 92Q359 92 399 129T448 225L504 688Q505 693 509 696T518
700H607Q612 700 615 697T617 688L560 227Q552 157 515 104T420 21T288 -8Q188 -8 130 46Z" />
<glyph unicode="V" glyph-name="V" horiz-adv-x="592" d="M218 0T216 10L95 686V688Q95 693 98 696T106 700H202Q212 700 215 690L296 168Q297 165 299 165T302 168L511 690Q512 694 516 697T525 700H619Q625 700 627 696T627 686L338 10Q333 0 324 0H227Q218 0 216 10Z" />
<glyph unicode="W" glyph-name="W" horiz-adv-x="851" d="M185 0T184 10L90 687V689Q90 700 101 700H197Q208 700 209 690L263 234Q264 231 266 231T269 234L431 690Q435 700 445 700H538Q549 700 550 690L607 233Q607 230 609 230T613 233L777 690Q781 700 792
700H882Q895 700 891 687L640 10Q637 0 626 0H535Q524 0 523 10L468 487Q468 490 466 490T462 487L295 10Q291 0 281 0H196Q185 0 184 10Z" />
<glyph unicode="X" glyph-name="X" horiz-adv-x="597" d="M14 0T14 6Q14 10 17 14L251 347Q253 351 252 353L100 686Q98 690 98 692Q98 700 109 700H206Q217 700 220 692L331 444Q333 438 337 444L510 692Q514 700 524 700H621Q630 700 630 694Q630 691 627 686L394
353Q391 350 393 347L545 14Q546 12 546 8Q546 0 535 0H438Q429 0 426 8L314 255Q311 261 308 255L135 8Q130 0 120 0H23Q14 0 14 6Z" />
<glyph unicode="Y" glyph-name="Y" horiz-adv-x="581" d="M221 1T218 4T216 13L249 281V287L98 686Q97 688 97 691Q97 700 108 700H204Q214 700 217 691L318 412Q321 408 324 412L495 691Q501 700 510 700H607Q614 700 616 696T614 686L364 287L361 281L328 13Q328
8 324 5T315 1H226Q221 1 218 4Z" />
<glyph unicode="Z" glyph-name="Z" horiz-adv-x="537" d="M23 0T20 3T18 12L28 97Q29 102 35 112L421 594Q425 600 419 600H102Q97 600 94 603T92 612L101 688Q102 693 105 696T114 700H551Q556 700 559 697T561 688L550 603Q550 598 544 588L158 106Q156 104
156 102T160 100H477Q482 100 485 97T487 88L478 12Q477 7 474 4T465 0H28Q23 0 20 3Z" />
<glyph unicode="[" glyph-name="bracketleft" horiz-adv-x="391" d="M3 -138T0 -135T-2 -126L109 779Q110 784 113 787T122 791H336Q341 791 344 788T346 779L337 703Q336 698 332 695T323 691H216Q212 691 210 686L122 -32Q122 -37 126 -37H235Q240 -37 243 -40T245
-49L236 -126Q235 -131 232 -134T223 -138H8Q3 -138 0 -135Z" />
<glyph unicode="\" glyph-name="backslash" horiz-adv-x="433" d="M389 11Q389 0 377 0H289Q280 0 278 10L124 686V689Q124 694 127 697T135 700H223Q233 700 234 690L389 14V11Z" />
<glyph unicode="]" glyph-name="bracketright" horiz-adv-x="391" d="M322 -131T319 -134T310 -138H97Q86 -138 86 -126L96 -49Q97 -44 100 -41T109 -37H217Q222 -37 222 -32L310 686Q312 691 306 691H198Q193 691 190 694T188 703L197 779Q198 784 202 787T211
791H424Q429 791 432 788T434 779L323 -126Q322 -131 319 -134Z" />
<glyph unicode="^" glyph-name="asciicircum" horiz-adv-x="451" d="M49 301T55 315L238 690Q243 700 253 700H329Q340 700 342 690L433 315L434 311Q434 301 422 301H350Q341 301 339 311L279 577Q279 580 277 580T274 577L150 311Q145 301 136 301H63Q49 301 55 315Z" />
<glyph unicode="_" glyph-name="underscore" horiz-adv-x="494" d="M3 0T3 12L11 77Q12 82 16 85T25 89H452Q457 89 460 86T462 77L454 12Q454 7 450 4T441 0H14Q3 0 3 12Z" />
<glyph unicode="`" glyph-name="grave" horiz-adv-x="213" d="M238 587T238 584Q238 580 235 578T227 575H163Q154 575 151 583L96 685Q95 687 95 690Q95 700 106 700H182Q193 700 196 692L237 589Q238 587 238 584Z" />
<glyph unicode="a" glyph-name="a" horiz-adv-x="540" d="M410 504T414 507T423 511H512Q517 511 520 508T522 499L462 12Q461 7 458 4T449 0H360Q355 0 352 3T350 12L355 59Q356 63 354 63T350 61Q302 -8 216 -8Q151 -8 108 31T55 138Q52 156 52 176Q52 204 59
256Q69 337 89 384Q115 444 167 481T286 519Q368 519 398 455Q400 452 402 452T404 457L409 499Q410 504 414 507ZM366 179T370 197T380 255Q385 302 385 315Q385 332 380 349Q377 379 356 399T300 419Q264 419 237 399T197 347Q190 332 186 314T176 256Q171 221
171 195Q171 179 174 164Q178 132 201 112T260 92Q295 92 320 112T359 164Q366 179 370 197Z" />
<glyph unicode="b" glyph-name="b" horiz-adv-x="542" d="M511 349T511 316Q511 299 507 257Q498 186 473 132Q443 66 392 29T271 -8Q236 -8 210 6T166 45Q164 48 162 47T160 43L156 12Q155 7 152 4T143 0H53Q48 0 45 3T43 12L126 688Q127 693 130 696T139 700H229Q234
700 237 697T239 688L212 471Q212 464 218 468Q264 519 334 519Q405 519 448 482T505 379Q511 349 511 316ZM382 181T391 255Q394 278 394 297Q394 346 377 377Q356 419 305 419Q258 419 226 375Q197 332 188 256Q184 218 184 205Q184 166 196 140Q215 92 265 92Q321
92 354 140Q382 181 391 255Z" />
<glyph unicode="c" glyph-name="c" horiz-adv-x="515" d="M172 -8T123 31T60 138Q54 164 54 194Q54 220 59 258Q67 327 89 376Q118 442 177 480T311 519Q387 519 438 480T501 382Q504 363 504 350Q504 344 501 341T491 336L402 323H400Q391 323 391 333Q390 336
390 341Q390 345 388 355Q383 383 359 401T299 419Q261 419 234 400T193 346Q179 313 172 257Q168 226 168 199Q168 184 170 168Q175 133 198 113T259 92Q296 92 325 112T365 164Q366 166 366 167T368 169V172Q372 184 383 182L469 168Q474 167 476 164T477 154Q475
142 470 131Q443 67 382 30T246 -8Q172 -8 123 31Z" />
<glyph unicode="d" glyph-name="d" horiz-adv-x="542" d="M434 693T437 696T446 700H535Q540 700 543 697T545 688L462 12Q461 7 458 4T449 0H360Q355 0 352 3T350 12L353 42Q354 45 352 46T348 44Q299 -8 230 -8Q161 -8 118 29T62 132Q56 164 56 198Q56 230 60
257Q68 327 91 379Q120 445 172 482T297 519Q364 519 400 469Q402 467 404 467T406 471L433 688Q434 693 437 696ZM370 182T379 256Q382 282 382 303Q382 348 369 375Q348 419 301 419Q251 419 218 377Q183 332 174 255Q171 233 171 212Q171 169 183 140Q205 92
260 92Q309 92 342 140Q370 182 379 256Z" />
<glyph unicode="e" glyph-name="e" horiz-adv-x="524" d="M497 279T489 226Q488 214 476 214H173Q168 214 168 209Q167 202 167 190Q167 175 170 164Q186 92 275 91Q341 91 387 147Q392 153 397 153Q401 153 404 150L457 99Q462 94 462 91Q462 89 458 83Q423 39
370 15T256 -9Q180 -9 132 26T67 124Q57 157 57 201Q57 231 61 259Q68 327 86 368Q114 438 172 478T307 519Q497 519 497 316Q497 279 489 226ZM258 419T233 401T193 349Q185 331 180 305Q178 300 183 300H380Q385 300 385 305Q386 313 386 326Q386 339 385 343Q380
379 357 399T295 419Q258 419 233 401Z" />
<glyph unicode="f" glyph-name="f" horiz-adv-x="365" d="M367 512T370 509T372 500L362 421Q361 416 358 413T349 409H253Q249 409 247 404L199 12Q198 7 195 4T186 0H97Q92 0 89 3T87 12L135 404Q135 409 131 409H71Q60 409 60 421L70 500Q71 505 74 508T83
512H143Q147 512 149 517L151 535Q159 600 180 635T240 686T349 700H383Q388 700 391 697T393 688L384 618Q383 613 380 610T371 606H346Q304 606 286 589T263 527L261 517Q261 512 266 512H362Q367 512 370 509Z" />
<glyph unicode="g" glyph-name="g" horiz-adv-x="532" d="M406 504T410 507T419 511H508Q513 511 516 508T518 499L461 34Q446 -91 370 -144T182 -198Q153 -198 123 -195Q113 -194 113 -182L126 -100Q127 -89 141 -89Q168 -92 191 -92Q264 -92 302 -62T349 37L350
45Q350 52 344 47Q300 3 226 3Q164 3 116 36T55 137Q52 158 52 182Q52 215 57 258Q68 342 88 385Q115 446 167 482T283 519Q359 519 397 473Q398 470 400 471T403 475L406 499Q406 504 410 507ZM364 185T368 202T376 259Q381 295 381 319Q381 328 379 346Q376 379
354 399T296 419Q260 419 234 399T193 346Q179 319 170 258Q166 227 166 201Q166 182 169 171Q175 139 198 119T257 98Q295 98 321 118T358 170Q364 185 368 202Z" />
<glyph unicode="h" glyph-name="h" horiz-adv-x="528" d="M413 519T454 479T495 369Q495 360 493 340L453 12Q452 7 448 4T439 0H350Q345 0 342 3T340 12L377 316Q378 322 378 334Q378 373 357 396T298 419Q257 419 228 391T192 317L155 12Q154 7 151 4T142 0H52Q47
0 44 3T42 12L125 688Q126 693 129 696T138 700H228Q233 700 236 697T238 688L211 467Q210 464 212 463T216 465Q261 519 342 519Q413 519 454 479Z" />
<glyph unicode="i" glyph-name="i" horiz-adv-x="247" d="M148 581T132 598T115 642Q115 677 138 700T194 723Q221 723 238 707T255 662Q255 628 232 605T176 581Q148 581 132 598ZM53 0T50 3T48 12L108 500Q109 505 112 508T121 512H210Q215 512 218 509T220
500L161 12Q160 7 156 4T147 0H58Q53 0 50 3Z" />
<glyph unicode="j" glyph-name="j" horiz-adv-x="243" d="M144 581T128 598T111 642Q111 677 134 700T190 723Q217 723 234 707T251 662Q251 628 228 605T172 581Q144 581 128 598ZM-93 -205T-93 -193L-83 -119Q-81 -107 -70 -108Q-15 -109 11 -88T44 -17L106
499Q107 504 110 507T119 511H208Q213 511 216 508T218 499L155 -16Q146 -89 122 -130T49 -189T-82 -205Q-93 -205 -93 -193Z" />
<glyph unicode="k" glyph-name="k" d="M47 0T44 3T42 12L125 688Q126 693 129 696T138 700H228Q233 700 236 697T238 688L193 327Q193 324 195 323T199 325L378 504Q385 511 394 511H496Q505 511 505 505Q505 500 501 496L359 344Q356 341 358 337L463 14Q464
12 464 9Q464 0 453 0H359Q349 0 346 9L272 263Q271 265 269 265T265 264L176 172Q174 168 174 165L155 12Q154 7 151 4T142 0H52Q47 0 44 3Z" />
<glyph unicode="l" glyph-name="l" horiz-adv-x="232" d="M47 0T44 3T42 12L125 688Q126 693 129 696T138 700H228Q233 700 236 697T238 688L155 12Q154 7 151 4T142 0H52Q47 0 44 3Z" />
<glyph unicode="m" glyph-name="m" horiz-adv-x="805" d="M702 519T738 482T775 375Q775 365 773 343L732 12Q731 7 728 4T719 0H631Q626 0 623 3T620 12L658 319Q659 325 659 337Q659 375 639 397T583 419Q543 419 515 392T481 320L443 12Q442 7 439 4T430 0H341Q336
0 333 3T331 12L369 319Q370 325 370 336Q370 374 350 396T293 419Q256 419 230 397T195 337L155 12Q154 7 151 4T142 0H52Q47 0 44 3T42 12L102 499Q103 504 106 507T115 511H204Q215 511 215 499L210 466Q210 463 212 462T216 464Q265 519 346 519Q394 519 427
499T475 441Q478 437 482 441Q509 481 548 500T635 519Q702 519 738 482Z" />
<glyph unicode="n" glyph-name="n" horiz-adv-x="528" d="M413 519T454 479T495 369Q495 360 493 340L453 12Q452 7 448 4T439 0H350Q345 0 342 3T340 12L377 316Q378 322 378 334Q378 373 357 396T298 419Q257 419 228 391T192 317L155 12Q154 7 151 4T142 0H52Q47
0 44 3T42 12L102 499Q103 504 106 507T115 511H204Q215 511 215 499L211 467Q210 464 212 463T216 465Q261 519 342 519Q413 519 454 479Z" />
<glyph unicode="o" glyph-name="o" horiz-adv-x="540" d="M174 -8T124 32T60 143Q55 173 55 205Q55 232 58 257Q66 320 87 371Q119 441 178 480T316 519Q390 519 439 480T502 372Q508 344 508 308Q508 284 505 258Q498 197 475 144Q444 73 385 33T250 -8Q174 -8
124 32ZM298 92T326 113T371 172Q386 207 391 256Q395 294 395 308Q395 327 392 340Q386 378 362 398T301 419Q265 419 237 399T191 340Q177 302 171 256Q168 231 168 207Q168 192 170 172Q177 134 201 113T263 92Q298 92 326 113Z" />
<glyph unicode="p" glyph-name="p" horiz-adv-x="546" d="M513 349T513 315Q513 282 509 254Q501 184 478 132Q449 66 397 29T274 -8Q205 -8 169 43Q168 45 166 44T163 40L136 -177Q136 -182 132 -185T123 -189H34Q29 -189 26 -186T24 -177L107 499Q108 504 111
507T120 511H209Q214 511 217 508T219 499L216 469Q215 466 217 465T221 467Q270 519 339 519Q408 519 451 482T507 379Q513 349 513 315ZM386 181T395 256Q398 280 398 301Q398 343 386 371Q365 420 310 420Q259 420 228 372Q201 333 191 256Q188 231 188 209Q188
163 201 136Q221 92 268 92Q320 92 351 134Q386 181 395 256Z" />
<glyph unicode="q" glyph-name="q" horiz-adv-x="546" d="M410 504T414 507T423 511H512Q517 511 520 508T522 499L439 -177Q438 -182 435 -185T426 -189H337Q326 -189 326 -177L353 40Q354 43 352 43T347 42Q300 -8 232 -8Q160 -8 117 29T61 132Q55 162 55 195Q55
212 59 254Q68 324 92 379Q122 446 174 482T295 519Q364 519 400 467Q401 464 403 465T406 469L409 499Q410 504 414 507ZM368 175T379 256Q382 280 382 302Q382 344 371 372Q349 420 300 420Q245 420 211 371Q183 327 174 256Q172 242 172 215Q172 165 188 134Q211
92 261 92Q308 92 340 136Q368 175 379 256Z" />
<glyph unicode="r" glyph-name="r" horiz-adv-x="365" d="M366 517T388 504Q394 500 392 489L364 399Q361 387 350 392Q335 397 316 397Q304 397 297 396Q256 394 226 367T189 295L155 12Q154 7 151 4T142 0H52Q47 0 44 3T42 12L102 499Q103 504 106 507T115 511H204Q215
511 215 499L209 454Q208 450 210 450T214 452Q261 517 335 517Q366 517 388 504Z" />
<glyph unicode="s" glyph-name="s" horiz-adv-x="479" d="M138 -6T88 29T37 121Q37 131 38 136L39 145Q40 150 43 153T52 157H138Q143 157 146 154T148 145V143Q144 118 168 100T234 81Q275 81 301 99T328 145Q328 165 310 175T252 198L216 210Q148 231 109 260T70
345Q70 358 71 364Q80 435 138 476T284 517Q366 517 414 480T463 383Q463 371 462 365Q461 360 458 357T449 353H366Q361 353 358 356T356 365Q359 391 337 408T272 426Q233 426 208 412T179 371Q176 346 197 334T270 307L291 301Q362 279 402 250T443 164Q443
152 442 146Q433 75 374 35T224 -6Q138 -6 88 29Z" />
<glyph unicode="t" glyph-name="t" horiz-adv-x="363" d="M355 424T352 421T343 417H244Q239 417 239 412L209 171Q208 165 208 154Q208 125 222 112T267 99H296Q307 99 307 87L297 12Q295 0 284 -1L234 -2Q164 -2 129 19T94 100Q94 107 96 127L131 412Q131 417
127 417H72Q61 417 61 429L70 499Q71 504 74 507T83 511H138Q142 511 144 516L158 633Q159 638 162 641T171 645H256Q261 645 264 642T266 633L252 516Q250 511 256 511H355Q360 511 363 508T365 499L356 429Q355 424 352 421Z" />
<glyph unicode="u" glyph-name="u" horiz-adv-x="524" d="M396 504T399 507T408 511H496Q501 511 504 508T506 499L447 12Q446 7 443 4T434 0H345Q340 0 337 3T335 12L339 44Q340 47 338 48T334 46Q287 -7 208 -7Q141 -7 97 30T53 136Q53 144 55 162L96 499Q97
504 100 507T109 511H199Q204 511 207 508T209 499L171 195Q170 189 170 176Q170 137 190 115T249 92Q292 92 322 120T358 195L395 499Q396 504 399 507Z" />
<glyph unicode="v" glyph-name="v" horiz-adv-x="489" d="M165 0T163 10L67 498V501Q67 506 70 509T78 512H177Q187 512 190 502L243 168Q243 165 245 165T249 168L384 502Q385 506 389 509T398 512L497 510Q503 510 505 507T505 496L290 10Q287 0 276 0H175Q165
0 163 10Z" />
<glyph unicode="w" glyph-name="w" horiz-adv-x="738" d="M148 0T146 10L67 498V500Q67 505 70 508T78 512H171Q182 512 183 502L222 168Q223 165 225 165T228 168L354 502Q357 512 368 512H449Q460 512 461 502L507 168Q507 165 509 165T512 168L640 502Q644
512 655 512L746 510Q751 510 753 507T754 497L554 10Q549 0 540 0H447Q437 0 435 10L387 315Q386 318 385 318T381 315L265 10Q261 0 250 0H158Q148 0 146 10Z" />
<glyph unicode="x" glyph-name="x" horiz-adv-x="500" d="M6 0T6 7Q6 11 9 15L195 253Q196 255 196 259L68 496Q67 498 67 502Q67 506 70 508T77 511H172Q182 511 185 503L267 349Q268 347 270 347T274 349L394 503Q399 511 408 511H510Q519 511 519 504Q519 501
516 496L330 259Q327 256 329 253L457 15Q458 13 458 10Q458 0 447 0H352Q343 0 340 8L258 162Q257 164 255 164T251 162L131 8Q125 0 116 0H15Q6 0 6 7Z" />
<glyph unicode="y" glyph-name="y" horiz-adv-x="474" d="M4 -199T2 -196T1 -187L10 -115Q11 -110 14 -107T23 -103H24Q64 -102 87 -95T128 -66T162 -3Q163 -1 162 3L63 498V502Q63 512 74 512H169Q174 512 177 509T181 502L235 150Q235 147 237 147T241 150L381
502Q384 512 396 512H488Q494 512 496 508T495 498L259 -28Q227 -99 199 -134T129 -184T13 -199H7Q4 -199 2 -196Z" />
<glyph unicode="z" glyph-name="z" horiz-adv-x="441" d="M14 0T11 3T9 12L20 97Q20 105 26 111L300 400Q303 403 302 404T298 406H74Q69 406 66 409T64 418L74 499Q75 504 78 507T87 511H440Q445 511 448 508T450 499L440 414Q439 405 432 400L153 111Q151 108
152 107T155 105H393Q398 105 401 102T403 93L393 12Q392 7 389 4T380 0H19Q14 0 11 3Z" />
<glyph unicode="{" glyph-name="braceleft" horiz-adv-x="339" d="M76 -138T76 -44Q76 -36 78 -18L104 193Q106 211 106 219Q106 248 95 263T59 283Q49 285 50 295L58 364Q60 375 71 377Q100 381 116 402T138 465L163 671Q178 791 294 791H373Q378 791 381 788T383
779L373 703Q373 698 369 695T360 691H331Q305 691 290 674T270 624L248 451Q243 403 227 375T181 333Q174 330 179 327Q220 305 220 241Q220 219 218 207L197 30Q196 24 196 14Q196 -11 208 -24T242 -37H271Q276 -37 279 -40T281 -49L272 -126Q271 -131 268 -134T259
-138H180Q76 -138 76 -44Z" />
<glyph unicode="|" glyph-name="bar" horiz-adv-x="184" d="M13 -80T10 -77T8 -68L108 748Q109 753 112 756T121 760H211Q216 760 219 757T221 748L121 -68Q120 -73 117 -76T108 -80H18Q13 -80 10 -77Z" />
<glyph unicode="}" glyph-name="braceright" horiz-adv-x="339" d="M8 -138Q3 -138 0 -135T-2 -126L8 -49Q8 -44 12 -41T21 -37H50Q76 -37 91 -20T111 30L133 207Q139 254 155 283T200 327Q207 330 201 333Q161 354 161 416Q161 438 163 451L184 624Q185 630 185
640Q185 665 173 678T139 691H110Q105 691 102 694T100 703L109 779Q110 784 113 787T122 791H200Q253 791 278 767T304 695Q304 680 303 671L277 465Q275 447 275 440Q275 383 322 377Q334 375 332 364L323 295Q322 285 311 283Q282 278 266 257T244 193L218 -18Q203
-138 86 -138H8Z" />
<glyph unicode="~" glyph-name="asciitilde" horiz-adv-x="507" d="M322 212T304 219T261 241Q242 254 224 262T185 270Q145 270 115 232Q106 223 98 229L53 264Q44 270 50 280Q71 321 111 346T194 371Q218 371 236 365T274 345Q300 328 316 320T354 312Q372 312
386 321T416 349Q425 359 433 353L486 314Q490 311 490 306Q490 301 488 298Q466 259 428 236T348 212Q322 212 304 219Z" />
<glyph unicode="&#xa0;" glyph-name="uni00A0" horiz-adv-x="194" />
<glyph unicode="&#xa1;" glyph-name="exclamdown" horiz-adv-x="325" d="M253 708T270 691T287 647Q287 613 264 590T208 567Q181 567 165 583T148 627Q148 661 171 684T226 708Q253 708 270 691ZM157 467T160 470T169 474H237Q242 474 245 471T247 462L203 22Q203
17 199 14T190 10H101Q96 10 93 13T91 22L156 462Q157 467 160 470Z" />
<glyph unicode="&#xa2;" glyph-name="cent" horiz-adv-x="515" d="M378 255T378 256T379 259V262Q383 274 394 272L480 258Q485 257 487 254T489 244Q482 224 481 221Q459 167 412 132T304 86Q299 84 299 80L291 7Q290 2 287 -1T278 -5H202Q197 -5 194 -2T192
7L203 83Q204 88 200 89Q148 103 115 139T71 228Q65 254 65 284Q65 310 70 348Q78 417 100 466Q122 518 164 553T261 602Q264 603 266 608L273 682Q274 687 277 690T286 694H362Q367 694 370 691T372 682L362 611Q362 606 366 605Q425 595 464 559T512 472Q515
453 515 440Q515 434 512 431T502 426L413 413H411Q402 413 402 423Q401 425 401 427T401 431Q401 435 399 445Q394 473 370 491T310 509Q272 509 245 490T204 436Q190 403 183 347Q179 318 179 291Q179 276 181 258Q186 223 209 203T270 182Q307 182 336 202T377
254Q378 255 378 256Z" />
<glyph unicode="&#xa3;" glyph-name="sterling" horiz-adv-x="592" d="M265 146T222 106Q219 104 220 102T224 100H543Q548 100 551 97T553 88L544 12Q543 7 540 4T531 0H93Q88 0 85 3T83 12L93 91Q93 98 102 105Q152 138 160 209L170 290Q172 295 166 295H99Q94
295 91 298T89 307L98 377Q99 382 102 385T111 389H178Q183 389 183 394L196 498Q208 597 271 652T432 708Q505 708 549 669T607 560L608 556Q608 549 597 546L512 530H510Q502 530 499 539Q491 576 471 592T419 608Q373 608 345 581T309 500L296 394Q294 389 300
389H478Q489 389 489 377L480 307Q479 302 476 299T467 295H288Q286 295 285 294T283 290L273 210Q265 146 222 106Z" />
<glyph unicode="&#xa4;" glyph-name="currency" horiz-adv-x="539" d="M492 261T449 196Q447 191 449 189L503 125Q506 122 506 117Q506 112 501 108L440 59Q436 55 431 55Q426 55 423 59L372 119Q370 122 365 120Q316 91 258 91Q203 91 161 118Q157 119 154 117L91
59Q85 55 82 55Q78 55 74 59L25 108Q22 111 22 115Q22 120 27 125L93 185Q96 188 94 192Q75 232 75 277Q75 348 119 410Q122 414 119 417L65 480Q62 483 62 488Q62 493 67 497L128 547Q132 551 137 551Q142 551 145 547L196 487Q197 484 202 486Q252 515 310 515Q370
515 413 483Q418 482 420 484L490 547Q494 551 499 551Q503 551 507 547L556 497Q559 494 559 490Q559 485 554 480L478 412Q476 410 477 405Q492 367 492 330Q492 261 449 196ZM173 247T201 219T270 190Q315 190 351 223T394 303L395 316Q395 358 367 387T297
416Q265 416 237 399T191 352T173 289Q173 247 201 219Z" />
<glyph unicode="&#xa5;" glyph-name="yen" horiz-adv-x="666" d="M658 700T660 696T658 686L443 342Q439 336 446 336H540Q545 336 548 333T550 324L545 282Q544 277 541 274T532 270H410Q404 270 404 265L397 205Q395 200 401 200H523Q528 200 531 197T533 188L528
146Q527 141 524 138T515 134H393Q389 134 387 129L373 13Q372 8 369 5T360 1H272Q267 1 264 4T262 13L276 129Q276 134 272 134H146Q141 134 138 137T136 146L141 188Q142 193 146 196T155 200H280Q285 200 285 205L292 265Q294 270 288 270H163Q158 270 155 273T153
282L158 324Q159 329 162 332T171 336H268Q275 336 273 342L142 686L141 690Q141 700 153 700H249Q258 700 261 691L364 412Q366 408 370 412L540 691Q545 700 554 700H651Q658 700 660 696Z" />
<glyph unicode="&#xa6;" glyph-name="brokenbar" horiz-adv-x="184" d="M72 401T69 404T67 413L108 748Q109 753 112 756T121 760H211Q216 760 219 757T221 748L180 413Q179 408 176 405T167 401H77Q72 401 69 404ZM13 -80T10 -77T8 -68L49 267Q50 272 53 275T62
279H152Q157 279 160 276T162 267L121 -68Q120 -73 117 -76T108 -80H18Q13 -80 10 -77Z" />
<glyph unicode="&#xa7;" glyph-name="section" horiz-adv-x="465" d="M107 -208T65 -169T23 -61Q23 -48 24 -41L27 -10Q28 -5 31 -2T40 2H129Q134 2 137 -1T139 -10L138 -23Q137 -29 137 -40Q137 -72 154 -90T201 -108Q236 -108 260 -83T284 -21Q284 2 270 18T236
43T174 70Q130 88 104 105T63 152Q50 181 50 218Q50 286 90 340Q119 377 163 392Q170 394 164 397Q131 415 111 447T91 520Q91 569 119 612T195 682T300 708Q373 708 418 667T464 560Q464 546 463 539L460 518Q459 513 456 510T447 506H358Q353 506 350 509T348
518L349 527Q350 531 350 540Q350 571 333 589T286 608Q252 608 228 582T203 520Q203 487 228 468T302 431Q338 419 365 405T410 366Q437 332 437 283Q437 251 427 219T397 161Q367 117 324 106Q320 105 320 104T323 100Q396 59 396 -18Q396 -74 368 -117T291 -184T183
-208Q107 -208 65 -169ZM278 166T302 199Q323 227 323 262Q323 286 313 303Q291 333 253 333Q232 333 214 323T183 295Q169 278 164 247L163 234Q163 215 171 199Q190 166 232 166Q278 166 302 199Z" />
<glyph unicode="&#xa8;" glyph-name="dieresis" horiz-adv-x="364" d="M299 586T282 603T265 647Q265 682 288 705T344 728Q371 728 387 712T404 668Q404 633 381 610T327 586Q299 586 282 603ZM116 586T99 603T82 647Q82 682 105 705T161 728Q188 728 204 712T221
668Q221 633 198 610T144 586Q116 586 99 603Z" />
<glyph unicode="&#xa9;" glyph-name="copyright" horiz-adv-x="810" d="M293 -8T223 31T114 141T75 302Q75 327 78 352Q90 453 145 534T286 661T472 708Q564 708 634 669T743 560T782 402Q782 378 779 352Q767 250 712 168T571 39T384 -8Q293 -8 223 31ZM472 71T538
107T648 208T701 352Q703 365 703 390Q703 459 673 513T588 598T462 629Q385 629 319 593T209 494T157 352Q154 331 154 312Q154 242 184 187T268 102T394 71Q472 71 538 107ZM360 173T333 198T305 267Q305 277 306 283L323 419Q329 469 364 498T452 528Q500 528
527 504T555 438Q555 429 554 424Q553 420 550 418T541 415L502 414Q491 414 491 423Q494 446 481 460T445 474Q421 474 405 460T387 423L369 278Q366 255 378 242T415 228Q438 228 454 242T474 278Q474 282 477 285T486 288L525 287Q536 287 536 278Q530 230 495
202T408 173Q360 173 333 198Z" />
<glyph unicode="&#xaa;" glyph-name="ordfeminine" horiz-adv-x="318" d="M265 566Q271 566 271 571L273 586Q276 616 261 634T213 652Q190 652 172 642T145 615Q142 603 132 605L92 609Q80 611 83 622Q94 660 131 684T220 708Q274 708 306 681T339 610Q339 601
338 596L311 378Q310 373 307 370T298 366H257Q252 366 249 369T247 378L249 389Q249 392 247 393T243 391Q209 360 152 360Q106 360 79 380T52 441Q52 498 93 532T201 566H265ZM204 412T230 431T259 478L263 510Q265 515 259 515H203Q163 515 140 500T117 453Q117
433 131 423T170 412Q204 412 230 431ZM34 302T38 305T47 309H299Q304 309 307 306T309 297L303 250Q302 245 299 242T290 238H38Q33 238 30 241T28 250L34 297Q34 302 38 305Z" />
<glyph unicode="&#xab;" glyph-name="guillemotleft" horiz-adv-x="504" d="M264 120T264 116Q264 112 261 110T254 107H171Q162 107 159 115L76 273Q74 277 74 279Q74 283 78 289L199 447Q205 455 214 455H296Q305 455 305 448Q305 445 302 440L179 284Q178 281
179 278L263 122Q264 120 264 116ZM426 120T426 116Q426 112 423 110T416 107H333Q324 107 321 115L238 273Q236 277 236 279Q236 283 240 289L361 447Q367 455 376 455H458Q467 455 467 448Q467 445 464 440L342 284Q341 281 342 278L425 122Q426 120 426 116Z"
/>
<glyph unicode="&#xac;" glyph-name="logicalnot" horiz-adv-x="476" d="M55 348T58 351T67 355H457Q462 355 465 352T467 343L444 152Q443 147 439 144T430 140H357Q352 140 349 143T347 152L359 250Q359 255 354 255H55Q44 255 44 267L54 343Q55 348 58 351Z" />
<glyph unicode="&#xad;" glyph-name="uni00AD" horiz-adv-x="392" d="M49 251T46 254T44 263L53 339Q54 344 57 347T66 351H372Q377 351 380 348T382 339L373 263Q372 258 369 255T360 251H54Q49 251 46 254Z" />
<glyph unicode="&#xae;" glyph-name="registered" horiz-adv-x="434" d="M334 711T374 689T436 628T458 541Q458 478 428 426T346 343T235 313Q186 313 147 335T85 398T63 488Q63 548 93 599T175 681T284 711Q334 711 374 689ZM304 364T351 407T406 515Q407 521
407 534Q407 589 371 625T278 661Q235 661 198 638T138 577T115 493Q115 437 150 401T242 364Q304 364 351 407ZM332 520T301 501Q298 500 298 495L313 436V433Q313 422 301 422H283Q273 422 271 432L258 490Q258 491 257 492T254 494H248Q244 494 242 489L236
434Q235 429 232 426T223 422H206Q201 422 198 425T196 434L215 593Q216 598 220 601T229 605H283Q305 605 318 591T332 556Q332 520 301 501ZM252 570T252 565L247 530Q247 525 252 525H267Q277 525 283 531T291 547V551Q291 560 286 565T273 570H257Q252 570
252 565Z" />
<glyph unicode="&#xaf;" glyph-name="overscore" horiz-adv-x="276" d="M59 583T56 586T54 595L61 651Q61 656 65 659T74 663H327Q332 663 335 660T337 651L330 595Q329 590 326 587T317 583H64Q59 583 56 586Z" />
<glyph unicode="&#xb0;" glyph-name="degree" horiz-adv-x="366" d="M160 476T120 517T80 620Q80 670 105 713T173 782T263 808Q325 808 365 767T405 664Q405 614 380 571T313 502T222 476Q160 476 120 517ZM271 553T300 583T330 655Q330 689 309 711T254 733Q214
733 185 703T155 630Q155 596 176 575T232 553Q271 553 300 583Z" />
<glyph unicode="&#xb1;" glyph-name="plusminus" horiz-adv-x="476" d="M471 430T474 427T476 418L467 342Q466 337 463 334T454 330H312Q308 330 306 325L289 181Q288 176 285 173T276 169H203Q198 169 195 172T193 181L210 325Q212 330 206 330H64Q53 330 53
342L63 418Q64 423 67 426T76 430H218Q224 430 224 435L242 583Q243 588 246 591T255 595H328Q333 595 336 592T338 583L320 435Q320 430 324 430H466Q471 430 474 427ZM13 0T13 12L23 88Q24 93 27 96T36 100H426Q431 100 434 97T436 88L427 12Q426 7 423 4T414
0H24Q13 0 13 12Z" />
<glyph unicode="&#xb2;" glyph-name="uni00B2" horiz-adv-x="327" d="M71 425T68 428T66 437L71 481Q72 489 79 496Q165 579 223 638Q289 706 289 738Q289 759 276 771T238 784Q212 784 195 769T175 730L174 720Q173 715 169 712T160 708H109Q104 708 101 711T99
720L102 742Q110 791 150 820T246 850Q301 850 332 822T363 748Q363 719 348 689T300 622Q261 577 177 497Q175 495 176 493T179 491H331Q336 491 339 488T341 479L336 437Q335 432 332 429T323 425H76Q71 425 68 428Z" />
<glyph unicode="&#xb3;" glyph-name="uni00B3" horiz-adv-x="314" d="M338 610T338 587Q338 579 336 559Q332 524 315 491Q296 457 263 438T188 419Q144 419 115 441T76 503Q71 524 73 547Q75 559 86 559H137Q148 559 148 547Q148 529 150 522Q153 505 165 495T196
485Q228 485 246 512Q264 543 264 576Q264 599 257 613Q248 640 215 640Q204 640 192 634Q190 633 186 633Q179 633 176 638L155 669Q153 673 153 675Q153 682 159 686L259 772Q261 774 261 776T257 778H121Q110 778 110 790L116 832Q116 837 120 840T129 844H356Q361
844 364 841T366 832L360 787Q360 779 353 772L264 692Q260 688 267 686Q313 678 332 629Q338 610 338 587Z" />
<glyph unicode="&#xb4;" glyph-name="acute" horiz-adv-x="213" d="M82 575T80 579T82 589L148 692Q153 700 164 700H240Q249 700 249 693Q249 690 246 685L167 583Q161 575 152 575H88Q82 575 80 579Z" />
<glyph unicode="&#xb5;" glyph-name="uni00B5" horiz-adv-x="533" d="M401 504T404 507T413 511H502Q507 511 510 508T512 499L453 12Q452 7 448 4T439 0H350Q345 0 342 3T340 12L344 44Q344 47 343 48T338 46Q293 -7 214 -7Q183 -7 159 0Q153 2 153 -4L130 -188Q129
-193 126 -196T117 -200H28Q23 -200 20 -197T18 -188L102 499Q103 504 106 507T115 511H204Q215 511 215 499L175 177Q174 137 195 115T255 92Q294 92 322 115T360 178L400 499Q401 504 404 507Z" />
<glyph unicode="&#xb6;" glyph-name="paragraph" horiz-adv-x="589" d="M579 700Q584 700 587 697T589 688L481 -188Q480 -193 477 -196T468 -200H408Q403 -200 400 -197T398 -188L496 612Q496 617 492 617H388Q383 617 383 612L284 -188Q284 -193 280 -196T271
-200H210Q205 -200 202 -197T200 -188L253 245Q255 250 249 250Q166 257 116 309T65 444Q65 453 67 475Q75 539 110 590T200 671T325 700H579Z" />
<glyph unicode="&#xb7;" glyph-name="middot" horiz-adv-x="219" d="M89 215T72 232T55 276Q55 311 78 334T134 357Q161 357 177 341T194 297Q194 262 171 239T117 215Q89 215 72 232Z" />
<glyph unicode="&#xb8;" glyph-name="cedilla" horiz-adv-x="154" d="M-41 -178T-38 -167L-28 -129Q-25 -117 -13 -120Q-4 -123 6 -123Q36 -123 46 -96Q49 -89 49 -80Q49 -50 11 -15Q7 -11 7 -7Q7 0 17 0H65Q74 0 79 -5Q123 -46 123 -93Q123 -107 116 -128Q104
-161 78 -175T19 -190Q-10 -190 -32 -182Q-41 -178 -38 -167Z" />
<glyph unicode="&#xb9;" glyph-name="uni00B9" horiz-adv-x="185" d="M160 845T167 845H222Q227 845 230 842T232 833L183 437Q183 432 179 429T170 425H119Q114 425 111 428T109 437L150 772Q150 776 146 776L110 772H108Q97 772 99 783L103 816Q104 826 114
829L152 842Q160 845 167 845Z" />
<glyph unicode="&#xba;" glyph-name="ordmasculine" horiz-adv-x="347" d="M153 365T123 390T81 460Q76 476 76 505Q76 527 78 537Q83 583 99 615Q119 659 156 683T242 708Q286 708 317 684T358 616Q362 600 362 573Q362 560 360 538Q355 498 339 460Q317 415
280 390T199 365Q153 365 123 390ZM227 429T244 442T272 478Q284 508 287 537Q289 548 289 569Q289 588 287 595Q283 618 268 631T232 644Q189 644 165 595Q154 568 150 537Q149 529 149 513Q149 496 151 478Q155 455 169 442T207 429Q227 429 244 442ZM37 237T37
249L44 299Q44 304 48 307T57 311H330Q335 311 338 308T340 299L334 249Q333 244 330 241T321 237H48Q37 237 37 249Z" />
<glyph unicode="&#xbb;" glyph-name="guillemotright" horiz-adv-x="504" d="M73 107T73 114Q73 118 76 122L198 278Q200 282 199 284L115 440Q114 442 114 445Q114 455 125 455H206Q216 455 219 447L301 289Q303 287 303 282Q303 277 299 273L178 115Q173 107
163 107H82Q73 107 73 114ZM235 107T235 114Q235 118 238 122L360 278Q362 282 361 284L277 440Q276 442 276 445Q276 455 287 455H368Q378 455 381 447L463 289Q465 287 465 282Q465 277 461 273L340 115Q335 107 325 107H244Q235 107 235 114Z" />
<glyph unicode="&#xbc;" glyph-name="onequarter" horiz-adv-x="795" d="M142 700T149 700H204Q209 700 212 697T214 688L165 292Q165 287 161 284T152 280H101Q96 280 93 283T91 292L132 627Q132 631 128 631L92 627H90Q79 627 81 638L85 671Q86 681 96 684L134
697Q142 700 149 700ZM83 0T83 6Q83 10 86 14L562 692Q567 700 577 700H634Q643 700 643 694Q643 691 640 686L165 8Q160 0 150 0H92Q83 0 83 6ZM755 177T758 174T760 165L755 120Q754 115 750 112T741 108H724Q720 108 718 103L707 12Q706 7 703 4T694 0H644Q639
0 636 3T634 12L645 103Q645 108 641 108H469Q464 108 461 111T459 120L463 156Q465 164 468 171L602 411Q607 420 617 420H670Q677 420 679 417T677 406L554 183Q553 181 553 179T556 177H649Q654 177 654 182L663 254Q664 259 667 262T676 266H727Q732 266 735
263T737 254L728 182Q728 177 732 177H750Q755 177 758 174Z" />
<glyph unicode="&#xbd;" glyph-name="onehalf" horiz-adv-x="776" d="M142 700T149 700H204Q209 700 212 697T214 688L165 292Q165 287 161 284T152 280H101Q96 280 93 283T91 292L132 627Q132 631 128 631L92 627H90Q79 627 81 638L85 671Q86 681 96 684L134
697Q142 700 149 700ZM83 0T83 6Q83 10 86 14L562 692Q567 700 577 700H634Q643 700 643 694Q643 691 640 686L165 8Q160 0 150 0H92Q83 0 83 6ZM461 0T458 3T456 12L461 56Q462 64 469 71Q555 154 613 213Q679 281 679 313Q679 334 666 346T628 359Q602 359 585
344T565 305L564 295Q563 290 559 287T550 283H499Q494 283 491 286T489 295L492 317Q500 366 540 395T636 425Q691 425 722 397T753 323Q753 294 738 264T690 197Q651 152 567 72Q565 70 566 68T569 66H721Q726 66 729 63T731 54L726 12Q725 7 722 4T713 0H466Q461
0 458 3Z" />
<glyph unicode="&#xbe;" glyph-name="threequarters" horiz-adv-x="883" d="M321 470T321 447Q321 439 319 419Q315 384 298 351Q279 317 246 298T171 279Q127 279 98 301T59 363Q54 384 56 407Q58 419 69 419H120Q131 419 131 407Q131 389 133 382Q136 365 148
355T179 345Q211 345 229 372Q247 403 247 436Q247 459 240 473Q231 500 198 500Q187 500 175 494Q173 493 169 493Q162 493 159 498L138 529Q136 533 136 535Q136 542 142 546L242 632Q244 634 244 636T240 638H104Q93 638 93 650L99 692Q99 697 103 700T112 704H339Q344
704 347 701T349 692L343 647Q343 639 336 632L247 552Q243 548 250 546Q296 538 315 489Q321 470 321 447ZM175 0T175 6Q175 10 178 14L654 692Q659 700 669 700H726Q735 700 735 694Q735 691 732 686L257 8Q252 0 242 0H184Q175 0 175 6ZM846 177T849 174T851
165L846 120Q845 115 841 112T832 108H815Q811 108 809 103L798 12Q797 7 794 4T785 0H735Q730 0 727 3T725 12L736 103Q736 108 732 108H560Q555 108 552 111T550 120L554 156Q556 164 559 171L693 411Q698 420 708 420H761Q768 420 770 417T768 406L645 183Q644
181 644 179T647 177H740Q745 177 745 182L754 254Q755 259 758 262T767 266H818Q823 266 826 263T828 254L819 182Q819 177 823 177H841Q846 177 849 174Z" />
<glyph unicode="&#xbf;" glyph-name="questiondown" horiz-adv-x="485" d="M332 501T348 484T365 441Q365 406 343 383T288 360Q260 360 243 376T226 420Q226 454 249 477T305 501Q332 501 348 484ZM325 286T328 283T330 274L325 233Q319 186 292 156T216 93Q184
70 167 55T137 19T124 -31Q124 -65 147 -84T209 -104Q254 -104 284 -79T319 -15L322 6Q323 17 335 17L424 13Q428 13 431 9T434 0L432 -15Q425 -72 393 -116T308 -185T193 -210Q108 -210 59 -167T9 -49Q9 -40 11 -22Q16 23 34 54T76 106T135 151Q172 176 191 194T213
240L217 274Q218 279 221 282T230 286H320Q325 286 328 283Z" />
<glyph unicode="&#xc0;" glyph-name="Agrave" horiz-adv-x="629" d="M463 0T461 10L442 117Q442 118 441 119T438 121H182Q180 121 176 117L131 10Q128 0 117 0H20Q14 0 12 4T12 14L306 690Q311 700 320 700H441Q450 700 452 690L581 14V11Q581 0 569 0H472Q463
0 461 10ZM216 212T222 212H419Q425 212 423 218L365 553Q364 557 362 557T359 553L219 218Q216 212 222 212ZM431 776T431 773Q431 769 428 767T420 764H356Q347 764 344 772L289 874Q288 876 288 879Q288 889 299 889H375Q386 889 389 881L430 778Q431 776 431
773Z" />
<glyph unicode="&#xc1;" glyph-name="Aacute" horiz-adv-x="629" d="M463 0T461 10L442 117Q442 118 441 119T438 121H182Q180 121 176 117L131 10Q128 0 117 0H20Q14 0 12 4T12 14L306 690Q311 700 320 700H441Q450 700 452 690L581 14V11Q581 0 569 0H472Q463
0 461 10ZM216 212T222 212H419Q425 212 423 218L365 553Q364 557 362 557T359 553L219 218Q216 212 222 212ZM335 764T333 768T335 778L401 881Q406 889 417 889H493Q502 889 502 882Q502 879 499 874L420 772Q414 764 405 764H341Q335 764 333 768Z" />
<glyph unicode="&#xc2;" glyph-name="Acircumflex" horiz-adv-x="629" d="M463 0T461 10L442 117Q442 118 441 119T438 121H182Q180 121 176 117L131 10Q128 0 117 0H20Q14 0 12 4T12 14L306 690Q311 700 320 700H441Q450 700 452 690L581 14V11Q581 0 569 0H472Q463
0 461 10ZM216 212T222 212H419Q425 212 423 218L365 553Q364 557 362 557T359 553L219 218Q216 212 222 212ZM246 762T246 769Q246 773 250 777L336 882Q342 889 351 889H453Q461 889 465 882L526 777Q528 773 528 770Q528 762 518 762H450Q440 762 437 770L400
837Q398 839 396 839T393 837L339 770Q334 762 325 762H256Q246 762 246 769Z" />
<glyph unicode="&#xc3;" glyph-name="Atilde" horiz-adv-x="629" d="M463 0T461 10L442 117Q442 118 441 119T438 121H182Q180 121 176 117L131 10Q128 0 117 0H20Q14 0 12 4T12 14L306 690Q311 700 320 700H441Q450 700 452 690L581 14V11Q581 0 569 0H472Q463
0 461 10ZM216 212T222 212H419Q425 212 423 218L365 553Q364 557 362 557T359 553L219 218Q216 212 222 212ZM431 773T419 777T389 792Q369 803 361 806T342 810Q311 810 288 787Q278 777 272 786L245 820Q242 825 242 828Q242 832 245 836Q263 863 289 878T347
893Q366 893 379 888T413 870Q430 860 439 856T459 852Q489 852 511 877Q516 882 520 882Q524 882 527 878L551 844Q556 837 552 829Q536 803 509 788T449 773Q431 773 419 777Z" />
<glyph unicode="&#xc4;" glyph-name="Adieresis" horiz-adv-x="629" d="M463 0T461 10L442 117Q442 118 441 119T438 121H182Q180 121 176 117L131 10Q128 0 117 0H20Q14 0 12 4T12 14L306 690Q311 700 320 700H441Q450 700 452 690L581 14V11Q581 0 569 0H472Q463
0 461 10ZM216 212T222 212H419Q425 212 423 218L365 553Q364 557 362 557T359 553L219 218Q216 212 222 212ZM453 775T436 792T419 836Q419 871 442 894T498 917Q525 917 541 901T558 857Q558 822 535 799T481 775Q453 775 436 792ZM270 775T253 792T236 836Q236
871 259 894T315 917Q342 917 358 901T375 857Q375 822 352 799T298 775Q270 775 253 792Z" />
<glyph unicode="&#xc5;" glyph-name="Aring" horiz-adv-x="629" d="M463 0T461 10L442 117Q442 118 441 119T438 121H182Q180 121 176 117L131 10Q128 0 117 0H20Q14 0 12 4T12 14L306 690Q311 700 320 700H441Q450 700 452 690L581 14V11Q581 0 569 0H472Q463
0 461 10ZM216 212T222 212H419Q425 212 423 218L365 553Q364 557 362 557T359 553L219 218Q216 212 222 212ZM341 757T312 786T283 860Q283 896 301 927T349 976T415 994Q460 994 488 965T517 891Q517 855 499 824T451 775T386 757Q341 757 312 786ZM418 820T436
838T455 883Q455 905 442 918T408 932Q383 932 365 914T346 870Q346 849 359 835T394 820Q418 820 436 838Z" />
<glyph unicode="&#xc6;" glyph-name="AE" horiz-adv-x="918" d="M929 607T926 604T917 600H601Q596 600 596 595L573 408Q573 403 577 403H784Q789 403 792 400T794 391L785 315Q784 310 780 307T771 303H565Q561 303 559 298L536 105Q534 100 540 100H855Q860
100 863 97T865 88L856 12Q855 7 852 4T843 0H422Q417 0 414 3T412 12L425 116Q425 121 420 121H209Q204 121 203 117L136 9Q130 0 121 0H22Q16 0 14 3T15 14L436 691Q442 700 451 700H929Q934 700 937 697T939 688L930 612Q929 607 926 604ZM263 215T264 214T268
212H431Q437 212 437 217L479 557Q479 561 477 561T473 558L264 218Q263 215 264 214Z" />
<glyph unicode="&#xc7;" glyph-name="Ccedilla" horiz-adv-x="589" d="M579 475T576 473T567 471L477 466Q466 466 467 477Q468 484 468 498Q468 549 438 578T353 608Q294 608 254 572T206 477L175 222Q174 215 174 201Q174 151 205 122T290 92Q348 92 388 127T436
222Q436 233 449 233L537 229Q542 229 545 226T548 219Q536 123 469 62T301 -7Q298 -8 297 -10T298 -14Q331 -48 331 -89Q331 -108 325 -124Q313 -157 287 -171T228 -186Q205 -186 177 -178Q168 -174 171 -163L181 -124Q184 -111 196 -116Q205 -119 214 -119Q233
-119 245 -108T257 -74Q257 -56 245 -38T211 -2Q211 -1 206 1Q138 18 100 68T61 192Q61 203 63 227L93 474Q101 544 138 597T234 679T365 708Q465 708 523 656T582 516Q582 505 580 483V478Q579 475 576 473Z" />
<glyph unicode="&#xc8;" glyph-name="Egrave" horiz-adv-x="574" d="M585 607T582 604T573 600H242Q240 600 239 599T237 595L214 408Q214 403 218 403H440Q451 403 451 391L441 315Q440 310 437 307T428 303H206Q201 303 201 298L177 105Q175 100 181 100H512Q517
100 520 97T522 88L513 12Q512 7 509 4T500 0H63Q58 0 55 3T53 12L136 688Q137 693 140 696T149 700H585Q590 700 593 697T596 688L586 612Q585 607 582 604ZM416 776T416 773Q416 769 413 767T405 764H341Q332 764 329 772L274 874Q273 876 273 879Q273 889 284
889H360Q371 889 374 881L415 778Q416 776 416 773Z" />
<glyph unicode="&#xc9;" glyph-name="Eacute" horiz-adv-x="574" d="M585 607T582 604T573 600H242Q240 600 239 599T237 595L214 408Q214 403 218 403H440Q451 403 451 391L441 315Q440 310 437 307T428 303H206Q201 303 201 298L177 105Q175 100 181 100H512Q517
100 520 97T522 88L513 12Q512 7 509 4T500 0H63Q58 0 55 3T53 12L136 688Q137 693 140 696T149 700H585Q590 700 593 697T596 688L586 612Q585 607 582 604ZM319 764T317 768T319 778L385 881Q390 889 401 889H477Q486 889 486 882Q486 879 483 874L404 772Q398
764 389 764H325Q319 764 317 768Z" />
<glyph unicode="&#xca;" glyph-name="Ecircumflex" horiz-adv-x="574" d="M585 607T582 604T573 600H242Q240 600 239 599T237 595L214 408Q214 403 218 403H440Q451 403 451 391L441 315Q440 310 437 307T428 303H206Q201 303 201 298L177 105Q175 100 181 100H512Q517
100 520 97T522 88L513 12Q512 7 509 4T500 0H63Q58 0 55 3T53 12L136 688Q137 693 140 696T149 700H585Q590 700 593 697T596 688L586 612Q585 607 582 604ZM230 762T230 769Q230 773 234 777L320 882Q326 889 335 889H437Q445 889 449 882L510 777Q512 773 512
770Q512 762 502 762H434Q424 762 421 770L384 837Q382 839 380 839T377 837L323 770Q318 762 309 762H240Q230 762 230 769Z" />
<glyph unicode="&#xcb;" glyph-name="Edieresis" horiz-adv-x="574" d="M585 607T582 604T573 600H242Q240 600 239 599T237 595L214 408Q214 403 218 403H440Q451 403 451 391L441 315Q440 310 437 307T428 303H206Q201 303 201 298L177 105Q175 100 181 100H512Q517
100 520 97T522 88L513 12Q512 7 509 4T500 0H63Q58 0 55 3T53 12L136 688Q137 693 140 696T149 700H585Q590 700 593 697T596 688L586 612Q585 607 582 604ZM437 775T420 792T403 836Q403 871 426 894T482 917Q509 917 525 901T542 857Q542 822 519 799T465 775Q437
775 420 792ZM254 775T237 792T220 836Q220 871 243 894T299 917Q326 917 342 901T359 857Q359 822 336 799T282 775Q254 775 237 792Z" />
<glyph unicode="&#xcc;" glyph-name="Igrave" horiz-adv-x="254" d="M58 0T55 3T53 12L136 688Q137 693 140 696T149 700H238Q243 700 246 697T248 688L165 12Q165 7 161 4T152 0H63Q58 0 55 3ZM245 776T245 773Q245 769 242 767T234 764H170Q161 764 158 772L103
874Q102 876 102 879Q102 889 113 889H189Q200 889 203 881L244 778Q245 776 245 773Z" />
<glyph unicode="&#xcd;" glyph-name="Iacute" horiz-adv-x="254" d="M58 0T55 3T53 12L136 688Q137 693 140 696T149 700H238Q243 700 246 697T248 688L165 12Q165 7 161 4T152 0H63Q58 0 55 3ZM149 764T147 768T149 778L215 881Q220 889 231 889H307Q316 889
316 882Q316 879 313 874L234 772Q228 764 219 764H155Q149 764 147 768Z" />
<glyph unicode="&#xce;" glyph-name="Icircumflex" horiz-adv-x="254" d="M58 0T55 3T53 12L136 688Q137 693 140 696T149 700H238Q243 700 246 697T248 688L165 12Q165 7 161 4T152 0H63Q58 0 55 3ZM60 762T60 769Q60 773 64 777L150 882Q156 889 165 889H267Q275
889 279 882L340 777Q342 773 342 770Q342 762 332 762H264Q254 762 251 770L214 837Q212 839 210 839T207 837L153 770Q148 762 139 762H70Q60 762 60 769Z" />
<glyph unicode="&#xcf;" glyph-name="Idieresis" horiz-adv-x="254" d="M58 0T55 3T53 12L136 688Q137 693 140 696T149 700H238Q243 700 246 697T248 688L165 12Q165 7 161 4T152 0H63Q58 0 55 3ZM267 775T250 792T233 836Q233 871 256 894T312 917Q339 917 355
901T372 857Q372 822 349 799T295 775Q267 775 250 792ZM84 775T67 792T50 836Q50 871 73 894T129 917Q156 917 172 901T189 857Q189 822 166 799T112 775Q84 775 67 792Z" />
<glyph unicode="&#xd0;" glyph-name="Eth" horiz-adv-x="654" d="M537 700T593 653T649 524Q649 515 647 495L611 205Q600 111 530 56T354 0H117Q112 0 109 3T107 12L145 317Q145 322 140 322H103Q92 322 92 334L99 390Q100 395 103 398T112 402H150Q154 402 156
407L190 688Q191 693 194 696T203 700H440Q537 700 593 653ZM532 476Q533 483 533 497Q533 545 506 572T432 600H297Q293 600 291 595L268 407Q268 402 272 402H362Q367 402 370 399T372 390L365 334Q364 329 361 326T352 322H263Q259 322 257 317L231 105Q231
100 235 100H371Q423 100 458 133T501 223L532 476Z" />
<glyph unicode="&#xd1;" glyph-name="Ntilde" horiz-adv-x="649" d="M532 693T535 696T544 700H633Q638 700 641 697T643 688L560 12Q559 7 556 4T547 0H461Q451 0 448 8L227 480Q225 483 223 483T221 478L165 12Q165 7 161 4T152 0H63Q58 0 55 3T53 12L136 688Q137
693 140 696T149 700H235Q245 700 248 692L468 220Q470 217 472 217T474 222L531 688Q532 693 535 696ZM438 773T426 777T396 792Q376 803 368 806T349 810Q318 810 295 787Q285 777 279 786L252 820Q249 825 249 828Q249 832 252 836Q270 863 296 878T354 893Q373
893 386 888T420 870Q437 860 446 856T466 852Q496 852 518 877Q523 882 527 882Q531 882 534 878L558 844Q563 837 559 829Q543 803 516 788T456 773Q438 773 426 777Z" />
<glyph unicode="&#xd2;" glyph-name="Ograve" horiz-adv-x="603" d="M180 -10T121 46T62 198Q62 223 64 236L92 464Q101 536 138 591T235 677T368 708Q469 708 528 652T588 501Q588 477 586 464L558 236Q549 163 511 107T413 21T280 -10Q180 -10 121 46ZM353 90T395
128T445 232L473 465Q475 481 475 489Q475 543 443 575T356 608Q295 608 254 569T205 465L176 232Q174 216 174 208Q174 154 206 122T292 90Q353 90 395 128ZM419 776T419 773Q419 769 416 767T408 764H344Q335 764 332 772L277 874Q276 876 276 879Q276 889 287
889H363Q374 889 377 881L418 778Q419 776 419 773Z" />
<glyph unicode="&#xd3;" glyph-name="Oacute" horiz-adv-x="603" d="M180 -10T121 46T62 198Q62 223 64 236L92 464Q101 536 138 591T235 677T368 708Q469 708 528 652T588 501Q588 477 586 464L558 236Q549 163 511 107T413 21T280 -10Q180 -10 121 46ZM353 90T395
128T445 232L473 465Q475 481 475 489Q475 543 443 575T356 608Q295 608 254 569T205 465L176 232Q174 216 174 208Q174 154 206 122T292 90Q353 90 395 128ZM323 764T321 768T323 778L389 881Q394 889 405 889H481Q490 889 490 882Q490 879 487 874L408 772Q402
764 393 764H329Q323 764 321 768Z" />
<glyph unicode="&#xd4;" glyph-name="Ocircumflex" horiz-adv-x="603" d="M180 -10T121 46T62 198Q62 223 64 236L92 464Q101 536 138 591T235 677T368 708Q469 708 528 652T588 501Q588 477 586 464L558 236Q549 163 511 107T413 21T280 -10Q180 -10 121 46ZM353
90T395 128T445 232L473 465Q475 481 475 489Q475 543 443 575T356 608Q295 608 254 569T205 465L176 232Q174 216 174 208Q174 154 206 122T292 90Q353 90 395 128ZM234 762T234 769Q234 773 238 777L324 882Q330 889 339 889H441Q449 889 453 882L514 777Q516
773 516 770Q516 762 506 762H438Q428 762 425 770L388 837Q386 839 384 839T381 837L327 770Q322 762 313 762H244Q234 762 234 769Z" />
<glyph unicode="&#xd5;" glyph-name="Otilde" horiz-adv-x="603" d="M180 -10T121 46T62 198Q62 223 64 236L92 464Q101 536 138 591T235 677T368 708Q469 708 528 652T588 501Q588 477 586 464L558 236Q549 163 511 107T413 21T280 -10Q180 -10 121 46ZM353 90T395
128T445 232L473 465Q475 481 475 489Q475 543 443 575T356 608Q295 608 254 569T205 465L176 232Q174 216 174 208Q174 154 206 122T292 90Q353 90 395 128ZM419 773T407 777T377 792Q357 803 349 806T330 810Q299 810 276 787Q266 777 260 786L233 820Q230 825
230 828Q230 832 233 836Q251 863 277 878T335 893Q354 893 367 888T401 870Q418 860 427 856T447 852Q477 852 499 877Q504 882 508 882Q512 882 515 878L539 844Q544 837 540 829Q524 803 497 788T437 773Q419 773 407 777Z" />
<glyph unicode="&#xd6;" glyph-name="Odieresis" horiz-adv-x="603" d="M180 -10T121 46T62 198Q62 223 64 236L92 464Q101 536 138 591T235 677T368 708Q469 708 528 652T588 501Q588 477 586 464L558 236Q549 163 511 107T413 21T280 -10Q180 -10 121 46ZM353
90T395 128T445 232L473 465Q475 481 475 489Q475 543 443 575T356 608Q295 608 254 569T205 465L176 232Q174 216 174 208Q174 154 206 122T292 90Q353 90 395 128ZM441 775T424 792T407 836Q407 871 430 894T486 917Q513 917 529 901T546 857Q546 822 523 799T469
775Q441 775 424 792ZM258 775T241 792T224 836Q224 871 247 894T303 917Q330 917 346 901T363 857Q363 822 340 799T286 775Q258 775 241 792Z" />
<glyph unicode="&#xd7;" glyph-name="multiply" horiz-adv-x="424" d="M422 437T422 432Q422 427 418 423L305 320Q303 318 303 316T304 312L391 210Q393 208 393 203Q393 198 389 194L328 139Q324 135 320 135Q317 135 313 139L227 241Q225 243 223 243T219 241L106
138Q102 134 98 134Q95 134 91 138L45 192Q42 195 42 199Q42 203 47 208L159 311Q161 312 161 314T160 319L71 424Q69 426 69 431Q69 437 74 441L133 495Q137 499 141 499Q146 499 149 495L238 390Q240 388 242 388T246 390L358 493Q362 497 367 497Q371 497 374
493L420 439Q422 437 422 432Z" />
<glyph unicode="&#xd8;" glyph-name="Oslash" horiz-adv-x="603" d="M635 679T635 674Q635 670 632 665L575 592Q574 590 574 585Q589 548 589 498Q589 488 587 464L559 236Q550 163 512 107T414 21T281 -10Q200 -10 144 27Q140 29 137 26L95 -29Q92 -34 87 -35T78
-33L16 11Q12 14 12 19Q12 23 15 27L76 107Q78 111 77 114Q62 156 62 198Q62 217 65 236L93 464Q102 536 139 591T236 677T369 708Q449 708 505 671Q509 670 512 673L555 729Q559 734 563 735T572 732L631 682Q635 679 635 674ZM179 250Q179 247 181 246T185 248L436
575Q440 579 436 582Q407 608 357 608Q296 608 255 569T206 465L179 250ZM472 450Q473 453 471 454T467 452L213 123Q209 119 213 116Q245 90 293 90Q354 90 396 128T446 232L472 450Z" />
<glyph unicode="&#xd9;" glyph-name="Ugrave" horiz-adv-x="617" d="M188 -8T130 46T71 193Q71 203 73 227L130 688Q131 693 134 696T143 700H232Q243 700 243 688L186 225Q185 218 185 204Q185 153 216 123T300 92Q359 92 399 129T448 225L504 688Q505 693 509
696T518 700H607Q612 700 615 697T617 688L560 227Q552 157 515 104T420 21T288 -8Q188 -8 130 46ZM427 776T427 773Q427 769 424 767T416 764H352Q343 764 340 772L285 874Q284 876 284 879Q284 889 295 889H371Q382 889 385 881L426 778Q427 776 427 773Z" />
<glyph unicode="&#xda;" glyph-name="Uacute" horiz-adv-x="617" d="M188 -8T130 46T71 193Q71 203 73 227L130 688Q131 693 134 696T143 700H232Q243 700 243 688L186 225Q185 218 185 204Q185 153 216 123T300 92Q359 92 399 129T448 225L504 688Q505 693 509
696T518 700H607Q612 700 615 697T617 688L560 227Q552 157 515 104T420 21T288 -8Q188 -8 130 46ZM331 764T329 768T331 778L397 881Q402 889 413 889H489Q498 889 498 882Q498 879 495 874L416 772Q410 764 401 764H337Q331 764 329 768Z" />
<glyph unicode="&#xdb;" glyph-name="Ucircumflex" horiz-adv-x="617" d="M188 -8T130 46T71 193Q71 203 73 227L130 688Q131 693 134 696T143 700H232Q243 700 243 688L186 225Q185 218 185 204Q185 153 216 123T300 92Q359 92 399 129T448 225L504 688Q505 693
509 696T518 700H607Q612 700 615 697T617 688L560 227Q552 157 515 104T420 21T288 -8Q188 -8 130 46ZM241 762T241 769Q241 773 245 777L331 882Q337 889 346 889H448Q456 889 460 882L521 777Q523 773 523 770Q523 762 513 762H445Q435 762 432 770L395 837Q393
839 391 839T388 837L334 770Q329 762 320 762H251Q241 762 241 769Z" />
<glyph unicode="&#xdc;" glyph-name="Udieresis" horiz-adv-x="617" d="M188 -8T130 46T71 193Q71 203 73 227L130 688Q131 693 134 696T143 700H232Q243 700 243 688L186 225Q185 218 185 204Q185 153 216 123T300 92Q359 92 399 129T448 225L504 688Q505 693
509 696T518 700H607Q612 700 615 697T617 688L560 227Q552 157 515 104T420 21T288 -8Q188 -8 130 46ZM448 775T431 792T414 836Q414 871 437 894T493 917Q520 917 536 901T553 857Q553 822 530 799T476 775Q448 775 431 792ZM265 775T248 792T231 836Q231 871
254 894T310 917Q337 917 353 901T370 857Q370 822 347 799T293 775Q265 775 248 792Z" />
<glyph unicode="&#xdd;" glyph-name="Yacute" horiz-adv-x="581" d="M221 1T218 4T216 13L249 281V287L98 686Q97 688 97 691Q97 700 108 700H204Q214 700 217 691L318 412Q321 408 324 412L495 691Q501 700 510 700H607Q614 700 616 696T614 686L364 287L361
281L328 13Q328 8 324 5T315 1H226Q221 1 218 4ZM312 763T310 767T312 777L378 880Q383 888 394 888H470Q479 888 479 881Q479 878 476 873L397 771Q391 763 382 763H318Q312 763 310 767Z" />
<glyph unicode="&#xde;" glyph-name="Thorn" horiz-adv-x="559" d="M458 555T507 507T556 379Q556 370 554 348Q547 288 514 242T429 171T319 145H181Q177 145 175 140L160 12Q159 7 155 4T146 0H57Q52 0 49 3T47 12L130 688Q131 693 134 696T143 700H232Q243
700 243 688L227 560Q227 555 231 555H374Q458 555 507 507ZM373 240T407 273T442 364Q442 406 416 430T345 455H219Q215 455 213 450L188 245Q188 240 192 240H319Q373 240 407 273Z" />
<glyph unicode="&#xdf;" glyph-name="germandbls" horiz-adv-x="551" d="M48 1T45 4T43 13L102 493Q116 595 179 651T344 708Q434 708 487 664T541 542Q541 526 540 518Q527 420 448 380Q442 377 447 374Q478 357 495 321T513 237Q513 227 511 203Q499 107 432
54T251 0H210Q205 0 202 3T199 12L209 87Q209 92 213 95T222 99H274Q330 99 365 135T401 235Q401 279 377 304T311 329H264Q259 329 256 332T254 341L263 409Q264 414 267 417T276 421H320Q367 421 397 451T428 527Q428 564 406 586T339 609Q291 609 257 581T216
504L156 12Q155 7 152 4T143 0L53 1Q48 1 45 4Z" />
<glyph unicode="&#xe0;" glyph-name="agrave" d="M410 504T414 507T423 511H512Q517 511 520 508T522 499L462 12Q461 7 458 4T449 0H360Q355 0 352 3T350 12L355 59Q356 63 354 63T350 61Q302 -8 216 -8Q151 -8 108 31T55 138Q52 156 52 176Q52 204 59 256Q69
337 89 384Q115 444 167 481T286 519Q368 519 398 455Q400 452 402 452T404 457L409 499Q410 504 414 507ZM366 179T370 197T380 255Q385 302 385 315Q385 332 380 349Q377 379 356 399T300 419Q264 419 237 399T197 347Q190 332 186 314T176 256Q171 221 171 195Q171
179 174 164Q178 132 201 112T260 92Q295 92 320 112T359 164Q366 179 370 197ZM348 587T348 584Q348 580 345 578T337 575H273Q264 575 261 583L206 685Q205 687 205 690Q205 700 216 700H292Q303 700 306 692L347 589Q348 587 348 584Z" />
<glyph unicode="&#xe1;" glyph-name="aacute" d="M410 504T414 507T423 511H512Q517 511 520 508T522 499L462 12Q461 7 458 4T449 0H360Q355 0 352 3T350 12L355 59Q356 63 354 63T350 61Q302 -8 216 -8Q151 -8 108 31T55 138Q52 156 52 176Q52 204 59 256Q69
337 89 384Q115 444 167 481T286 519Q368 519 398 455Q400 452 402 452T404 457L409 499Q410 504 414 507ZM366 179T370 197T380 255Q385 302 385 315Q385 332 380 349Q377 379 356 399T300 419Q264 419 237 399T197 347Q190 332 186 314T176 256Q171 221 171 195Q171
179 174 164Q178 132 201 112T260 92Q295 92 320 112T359 164Q366 179 370 197ZM252 575T250 579T252 589L318 692Q323 700 334 700H410Q419 700 419 693Q419 690 416 685L337 583Q331 575 322 575H258Q252 575 250 579Z" />
<glyph unicode="&#xe2;" glyph-name="acircumflex" d="M410 504T414 507T423 511H512Q517 511 520 508T522 499L462 12Q461 7 458 4T449 0H360Q355 0 352 3T350 12L355 59Q356 63 354 63T350 61Q302 -8 216 -8Q151 -8 108 31T55 138Q52 156 52 176Q52 204 59 256Q69
337 89 384Q115 444 167 481T286 519Q368 519 398 455Q400 452 402 452T404 457L409 499Q410 504 414 507ZM366 179T370 197T380 255Q385 302 385 315Q385 332 380 349Q377 379 356 399T300 419Q264 419 237 399T197 347Q190 332 186 314T176 256Q171 221 171 195Q171
179 174 164Q178 132 201 112T260 92Q295 92 320 112T359 164Q366 179 370 197ZM163 573T163 580Q163 584 167 588L253 693Q259 700 268 700H370Q378 700 382 693L443 588Q445 584 445 581Q445 573 435 573H367Q357 573 354 581L317 648Q315 650 313 650T310 648L256
581Q251 573 242 573H173Q163 573 163 580Z" />
<glyph unicode="&#xe3;" glyph-name="atilde" d="M410 504T414 507T423 511H512Q517 511 520 508T522 499L462 12Q461 7 458 4T449 0H360Q355 0 352 3T350 12L355 59Q356 63 354 63T350 61Q302 -8 216 -8Q151 -8 108 31T55 138Q52 156 52 176Q52 204 59 256Q69
337 89 384Q115 444 167 481T286 519Q368 519 398 455Q400 452 402 452T404 457L409 499Q410 504 414 507ZM366 179T370 197T380 255Q385 302 385 315Q385 332 380 349Q377 379 356 399T300 419Q264 419 237 399T197 347Q190 332 186 314T176 256Q171 221 171 195Q171
179 174 164Q178 132 201 112T260 92Q295 92 320 112T359 164Q366 179 370 197ZM348 584T336 588T306 603Q286 614 278 617T259 621Q228 621 205 598Q195 588 189 597L162 631Q159 636 159 639Q159 643 162 647Q180 674 206 689T264 704Q283 704 296 699T330 681Q347
671 356 667T376 663Q406 663 428 688Q433 693 437 693Q441 693 444 689L468 655Q473 648 469 640Q453 614 426 599T366 584Q348 584 336 588Z" />
<glyph unicode="&#xe4;" glyph-name="adieresis" d="M410 504T414 507T423 511H512Q517 511 520 508T522 499L462 12Q461 7 458 4T449 0H360Q355 0 352 3T350 12L355 59Q356 63 354 63T350 61Q302 -8 216 -8Q151 -8 108 31T55 138Q52 156 52 176Q52 204 59 256Q69
337 89 384Q115 444 167 481T286 519Q368 519 398 455Q400 452 402 452T404 457L409 499Q410 504 414 507ZM366 179T370 197T380 255Q385 302 385 315Q385 332 380 349Q377 379 356 399T300 419Q264 419 237 399T197 347Q190 332 186 314T176 256Q171 221 171 195Q171
179 174 164Q178 132 201 112T260 92Q295 92 320 112T359 164Q366 179 370 197ZM370 586T353 603T336 647Q336 682 359 705T415 728Q442 728 458 712T475 668Q475 633 452 610T398 586Q370 586 353 603ZM187 586T170 603T153 647Q153 682 176 705T232 728Q259 728
275 712T292 668Q292 633 269 610T215 586Q187 586 170 603Z" />
<glyph unicode="&#xe5;" glyph-name="aring" d="M410 504T414 507T423 511H512Q517 511 520 508T522 499L462 12Q461 7 458 4T449 0H360Q355 0 352 3T350 12L355 59Q356 63 354 63T350 61Q302 -8 216 -8Q151 -8 108 31T55 138Q52 156 52 176Q52 204 59 256Q69
337 89 384Q115 444 167 481T286 519Q368 519 398 455Q400 452 402 452T404 457L409 499Q410 504 414 507ZM366 179T370 197T380 255Q385 302 385 315Q385 332 380 349Q377 379 356 399T300 419Q264 419 237 399T197 347Q190 332 186 314T176 256Q171 221 171 195Q171
179 174 164Q178 132 201 112T260 92Q295 92 320 112T359 164Q366 179 370 197ZM258 568T229 597T200 671Q200 707 218 738T266 787T332 805Q377 805 405 776T434 702Q434 666 416 635T368 586T303 568Q258 568 229 597ZM335 631T353 649T372 694Q372 716 359 729T325
743Q300 743 282 725T263 681Q263 660 276 646T311 631Q335 631 353 649Z" />
<glyph unicode="&#xe6;" glyph-name="ae" horiz-adv-x="811" d="M119 -8T74 22T28 116Q28 199 87 249T250 300H354Q359 300 359 305L363 331Q364 336 364 345Q364 379 343 399T279 419Q244 419 219 406T185 368Q180 357 170 358L82 370Q77 371 75 374T73 384Q89
443 149 481T287 519Q341 519 381 496T436 440Q439 434 442 440Q466 471 510 495T602 519Q669 519 720 480T782 374Q785 358 785 334Q785 305 777 227Q776 214 763 214H468Q464 214 462 209Q461 201 461 195T461 179Q461 139 491 118T568 97Q642 97 681 151Q689
162 697 154L744 113Q748 109 748 104Q748 99 746 96Q714 51 661 22T542 -8Q489 -8 449 14T391 71Q388 76 386 72Q359 36 308 14T194 -8Q119 -8 74 22ZM473 300T477 300H668Q673 300 673 305Q675 333 674 343Q669 377 647 398T587 419Q550 419 523 399T482 343Q476
321 473 305Q473 300 477 300ZM266 80T302 104T343 173L348 209Q348 214 343 214H261Q206 214 174 195T141 139Q141 112 162 96T220 80Q266 80 302 104Z" />
<glyph unicode="&#xe7;" glyph-name="ccedilla" horiz-adv-x="515" d="M366 166T366 167T368 169V172Q372 184 383 182L469 168Q474 167 476 164T477 154Q475 142 470 131Q447 76 399 41T289 -5Q283 -6 286 -11Q320 -48 320 -89Q320 -107 314 -123Q301 -156 275
-170T217 -185Q187 -185 165 -177Q157 -173 160 -162L169 -124Q172 -111 184 -116Q193 -119 203 -119Q233 -119 243 -91Q246 -84 246 -75Q246 -45 205 -6L199 -3Q144 7 108 44T60 138Q54 164 54 194Q54 220 59 258Q67 327 89 376Q118 442 177 480T311 519Q387 519
438 480T501 382Q504 363 504 350Q504 344 501 341T491 336L402 323H400Q391 323 391 333Q390 336 390 341Q390 345 388 355Q383 383 359 401T299 419Q261 419 234 400T193 346Q179 313 172 257Q168 226 168 199Q168 184 170 168Q175 133 198 113T259 92Q296 92
325 112T365 164Q366 166 366 167Z" />
<glyph unicode="&#xe8;" glyph-name="egrave" horiz-adv-x="524" d="M497 279T489 226Q488 214 476 214H173Q168 214 168 209Q167 202 167 190Q167 175 170 164Q186 92 275 91Q341 91 387 147Q392 153 397 153Q401 153 404 150L457 99Q462 94 462 91Q462 89 458
83Q423 39 370 15T256 -9Q180 -9 132 26T67 124Q57 157 57 201Q57 231 61 259Q68 327 86 368Q114 438 172 478T307 519Q497 519 497 316Q497 279 489 226ZM258 419T233 401T193 349Q185 331 180 305Q178 300 183 300H380Q385 300 385 305Q386 313 386 326Q386 339
385 343Q380 379 357 399T295 419Q258 419 233 401ZM356 587T356 584Q356 580 353 578T345 575H281Q272 575 269 583L214 685Q213 687 213 690Q213 700 224 700H300Q311 700 314 692L355 589Q356 587 356 584Z" />
<glyph unicode="&#xe9;" glyph-name="eacute" horiz-adv-x="524" d="M497 279T489 226Q488 214 476 214H173Q168 214 168 209Q167 202 167 190Q167 175 170 164Q186 92 275 91Q341 91 387 147Q392 153 397 153Q401 153 404 150L457 99Q462 94 462 91Q462 89 458
83Q423 39 370 15T256 -9Q180 -9 132 26T67 124Q57 157 57 201Q57 231 61 259Q68 327 86 368Q114 438 172 478T307 519Q497 519 497 316Q497 279 489 226ZM258 419T233 401T193 349Q185 331 180 305Q178 300 183 300H380Q385 300 385 305Q386 313 386 326Q386 339
385 343Q380 379 357 399T295 419Q258 419 233 401ZM260 575T258 579T260 589L326 692Q331 700 342 700H418Q427 700 427 693Q427 690 424 685L345 583Q339 575 330 575H266Q260 575 258 579Z" />
<glyph unicode="&#xea;" glyph-name="ecircumflex" horiz-adv-x="524" d="M497 279T489 226Q488 214 476 214H173Q168 214 168 209Q167 202 167 190Q167 175 170 164Q186 92 275 91Q341 91 387 147Q392 153 397 153Q401 153 404 150L457 99Q462 94 462 91Q462
89 458 83Q423 39 370 15T256 -9Q180 -9 132 26T67 124Q57 157 57 201Q57 231 61 259Q68 327 86 368Q114 438 172 478T307 519Q497 519 497 316Q497 279 489 226ZM258 419T233 401T193 349Q185 331 180 305Q178 300 183 300H380Q385 300 385 305Q386 313 386 326Q386
339 385 343Q380 379 357 399T295 419Q258 419 233 401ZM171 573T171 580Q171 584 175 588L261 693Q267 700 276 700H378Q386 700 390 693L451 588Q453 584 453 581Q453 573 443 573H375Q365 573 362 581L325 648Q323 650 321 650T318 648L264 581Q259 573 250
573H181Q171 573 171 580Z" />
<glyph unicode="&#xeb;" glyph-name="edieresis" horiz-adv-x="524" d="M497 279T489 226Q488 214 476 214H173Q168 214 168 209Q167 202 167 190Q167 175 170 164Q186 92 275 91Q341 91 387 147Q392 153 397 153Q401 153 404 150L457 99Q462 94 462 91Q462 89
458 83Q423 39 370 15T256 -9Q180 -9 132 26T67 124Q57 157 57 201Q57 231 61 259Q68 327 86 368Q114 438 172 478T307 519Q497 519 497 316Q497 279 489 226ZM258 419T233 401T193 349Q185 331 180 305Q178 300 183 300H380Q385 300 385 305Q386 313 386 326Q386
339 385 343Q380 379 357 399T295 419Q258 419 233 401ZM378 586T361 603T344 647Q344 682 367 705T423 728Q450 728 466 712T483 668Q483 633 460 610T406 586Q378 586 361 603ZM195 586T178 603T161 647Q161 682 184 705T240 728Q267 728 283 712T300 668Q300
633 277 610T223 586Q195 586 178 603Z" />
<glyph unicode="&#xec;" glyph-name="igrave" horiz-adv-x="221" d="M36 0T36 12L96 499Q97 504 100 507T109 511H199Q204 511 207 508T209 499L149 12Q148 7 145 4T136 0H47Q36 0 36 12ZM206 587T206 584Q206 580 203 578T195 575H131Q122 575 119 583L64 685Q63
687 63 690Q63 700 74 700H150Q161 700 164 692L205 589Q206 587 206 584Z" />
<glyph unicode="&#xed;" glyph-name="iacute" horiz-adv-x="221" d="M36 0T36 12L96 499Q97 504 100 507T109 511H199Q204 511 207 508T209 499L149 12Q148 7 145 4T136 0H47Q36 0 36 12ZM109 575T107 579T109 589L175 692Q180 700 191 700H267Q276 700 276 693Q276
690 273 685L194 583Q188 575 179 575H115Q109 575 107 579Z" />
<glyph unicode="&#xee;" glyph-name="icircumflex" horiz-adv-x="221" d="M36 0T36 12L96 499Q97 504 100 507T109 511H199Q204 511 207 508T209 499L149 12Q148 7 145 4T136 0H47Q36 0 36 12ZM20 573T20 580Q20 584 24 588L110 693Q116 700 125 700H227Q235 700
239 693L300 588Q302 584 302 581Q302 573 292 573H224Q214 573 211 581L174 648Q172 650 170 650T167 648L113 581Q108 573 99 573H30Q20 573 20 580Z" />
<glyph unicode="&#xef;" glyph-name="idieresis" horiz-adv-x="221" d="M36 0T36 12L96 499Q97 504 100 507T109 511H199Q204 511 207 508T209 499L149 12Q148 7 145 4T136 0H47Q36 0 36 12ZM227 586T210 603T193 647Q193 682 216 705T272 728Q299 728 315 712T332
668Q332 633 309 610T255 586Q227 586 210 603ZM44 586T27 603T10 647Q10 682 33 705T89 728Q116 728 132 712T149 668Q149 633 126 610T72 586Q44 586 27 603Z" />
<glyph unicode="&#xf0;" glyph-name="eth" horiz-adv-x="527" d="M491 353T491 333Q491 287 484 238Q475 163 458 126Q429 66 371 29T240 -8Q168 -8 119 28T56 126Q51 151 51 173Q51 197 56 237Q65 309 83 348Q101 389 134 417T211 455Q246 465 285 465Q338 465
365 448Q368 447 369 448T370 452Q357 503 333 544Q332 546 331 546T327 546L230 519L226 518Q218 518 216 528L211 568V570Q211 579 221 582L290 601Q295 603 292 608Q269 640 229 685Q225 691 225 693Q225 700 235 700H330Q339 700 344 693L388 632Q391 629 395
630L477 653L480 654Q488 654 490 644L495 605V602Q495 593 486 590L434 576Q431 575 430 574T430 570Q459 520 474 471T490 362Q491 353 491 333ZM364 178T370 234Q374 261 374 285Q374 301 371 313Q366 346 344 365T288 385Q253 385 227 366T187 313Q177 291
169 234Q166 204 166 183Q166 169 168 153Q173 120 194 100T250 80Q285 80 312 100T351 153Q364 178 370 234Z" />
<glyph unicode="&#xf1;" glyph-name="ntilde" horiz-adv-x="528" d="M413 519T454 479T495 369Q495 360 493 340L453 12Q452 7 448 4T439 0H350Q345 0 342 3T340 12L377 316Q378 322 378 334Q378 373 357 396T298 419Q257 419 228 391T192 317L155 12Q154 7 151
4T142 0H52Q47 0 44 3T42 12L102 499Q103 504 106 507T115 511H204Q215 511 215 499L211 467Q210 464 212 463T216 465Q261 519 342 519Q413 519 454 479ZM363 584T351 588T321 603Q301 614 293 617T274 621Q243 621 220 598Q210 588 204 597L177 631Q174 636 174
639Q174 643 177 647Q195 674 221 689T279 704Q298 704 311 699T345 681Q362 671 371 667T391 663Q421 663 443 688Q448 693 452 693Q456 693 459 689L483 655Q488 648 484 640Q468 614 441 599T381 584Q363 584 351 588Z" />
<glyph unicode="&#xf2;" glyph-name="ograve" horiz-adv-x="528" d="M174 -8T124 32T60 143Q55 173 55 205Q55 232 58 257Q66 320 87 371Q119 441 178 480T316 519Q390 519 439 480T502 372Q508 344 508 308Q508 284 505 258Q498 197 475 144Q444 73 385 33T250
-8Q174 -8 124 32ZM298 92T326 113T371 172Q386 207 391 256Q395 294 395 308Q395 327 392 340Q386 378 362 398T301 419Q265 419 237 399T191 340Q177 302 171 256Q168 231 168 207Q168 192 170 172Q177 134 201 113T263 92Q298 92 326 113ZM359 587T359 584Q359
580 356 578T348 575H284Q275 575 272 583L217 685Q216 687 216 690Q216 700 227 700H303Q314 700 317 692L358 589Q359 587 359 584Z" />
<glyph unicode="&#xf3;" glyph-name="oacute" horiz-adv-x="528" d="M174 -8T124 32T60 143Q55 173 55 205Q55 232 58 257Q66 320 87 371Q119 441 178 480T316 519Q390 519 439 480T502 372Q508 344 508 308Q508 284 505 258Q498 197 475 144Q444 73 385 33T250
-8Q174 -8 124 32ZM298 92T326 113T371 172Q386 207 391 256Q395 294 395 308Q395 327 392 340Q386 378 362 398T301 419Q265 419 237 399T191 340Q177 302 171 256Q168 231 168 207Q168 192 170 172Q177 134 201 113T263 92Q298 92 326 113ZM263 575T261 579T263
589L329 692Q334 700 345 700H421Q430 700 430 693Q430 690 427 685L348 583Q342 575 333 575H269Q263 575 261 579Z" />
<glyph unicode="&#xf4;" glyph-name="ocircumflex" horiz-adv-x="528" d="M174 -8T124 32T60 143Q55 173 55 205Q55 232 58 257Q66 320 87 371Q119 441 178 480T316 519Q390 519 439 480T502 372Q508 344 508 308Q508 284 505 258Q498 197 475 144Q444 73 385
33T250 -8Q174 -8 124 32ZM298 92T326 113T371 172Q386 207 391 256Q395 294 395 308Q395 327 392 340Q386 378 362 398T301 419Q265 419 237 399T191 340Q177 302 171 256Q168 231 168 207Q168 192 170 172Q177 134 201 113T263 92Q298 92 326 113ZM174 573T174
580Q174 584 178 588L264 693Q270 700 279 700H381Q389 700 393 693L454 588Q456 584 456 581Q456 573 446 573H378Q368 573 365 581L328 648Q326 650 324 650T321 648L267 581Q262 573 253 573H184Q174 573 174 580Z" />
<glyph unicode="&#xf5;" glyph-name="otilde" horiz-adv-x="528" d="M174 -8T124 32T60 143Q55 173 55 205Q55 232 58 257Q66 320 87 371Q119 441 178 480T316 519Q390 519 439 480T502 372Q508 344 508 308Q508 284 505 258Q498 197 475 144Q444 73 385 33T250
-8Q174 -8 124 32ZM298 92T326 113T371 172Q386 207 391 256Q395 294 395 308Q395 327 392 340Q386 378 362 398T301 419Q265 419 237 399T191 340Q177 302 171 256Q168 231 168 207Q168 192 170 172Q177 134 201 113T263 92Q298 92 326 113ZM359 584T347 588T317
603Q297 614 289 617T270 621Q239 621 216 598Q206 588 200 597L173 631Q170 636 170 639Q170 643 173 647Q191 674 217 689T275 704Q294 704 307 699T341 681Q358 671 367 667T387 663Q417 663 439 688Q444 693 448 693Q452 693 455 689L479 655Q484 648 480 640Q464
614 437 599T377 584Q359 584 347 588Z" />
<glyph unicode="&#xf6;" glyph-name="odieresis" horiz-adv-x="528" d="M174 -8T124 32T60 143Q55 173 55 205Q55 232 58 257Q66 320 87 371Q119 441 178 480T316 519Q390 519 439 480T502 372Q508 344 508 308Q508 284 505 258Q498 197 475 144Q444 73 385 33T250
-8Q174 -8 124 32ZM298 92T326 113T371 172Q386 207 391 256Q395 294 395 308Q395 327 392 340Q386 378 362 398T301 419Q265 419 237 399T191 340Q177 302 171 256Q168 231 168 207Q168 192 170 172Q177 134 201 113T263 92Q298 92 326 113ZM381 586T364 603T347
647Q347 682 370 705T426 728Q453 728 469 712T486 668Q486 633 463 610T409 586Q381 586 364 603ZM198 586T181 603T164 647Q164 682 187 705T243 728Q270 728 286 712T303 668Q303 633 280 610T226 586Q198 586 181 603Z" />
<glyph unicode="&#xf7;" glyph-name="divide" horiz-adv-x="476" d="M247 425T232 441T217 481Q217 508 238 529T286 551Q309 551 324 535T339 496Q339 468 318 447T270 425Q247 425 232 441ZM51 267T48 270T46 279L55 354Q56 359 59 362T68 366H458Q463 366 466
363T468 354L459 279Q458 274 455 271T446 267H56Q51 267 48 270ZM206 94T191 109T176 149Q176 177 197 198T245 219Q268 219 283 203T299 164Q299 136 278 115T230 94Q206 94 191 109Z" />
<glyph unicode="&#xf8;" glyph-name="oslash" horiz-adv-x="516" d="M471 430T472 427Q486 397 491 372Q497 345 497 311Q497 285 494 258Q486 192 464 144Q433 73 374 33T240 -8Q186 -8 142 13Q138 14 135 11L95 -40Q91 -45 87 -45T78 -42L23 10Q19 13 19 18Q19
23 23 27L66 82Q69 85 67 89Q54 114 50 143Q44 172 44 207Q44 232 47 257Q55 322 77 371Q107 441 167 480T305 519Q358 519 396 500Q400 499 403 502L444 554Q448 559 452 559T461 556L517 505Q520 502 520 497Q520 493 517 488L472 433Q471 430 472 427ZM157 226T158
205Q157 201 159 201T164 203L326 406Q328 408 328 410T325 413Q310 419 290 419Q253 419 225 399T180 340Q166 302 160 256Q157 226 158 205ZM374 205T381 256Q384 288 384 313Q383 316 381 316T377 314L212 106Q208 101 213 99Q228 92 252 92Q287 92 315 113T360
172Q374 205 381 256Z" />
<glyph unicode="&#xf9;" glyph-name="ugrave" horiz-adv-x="527" d="M396 504T399 507T408 511H496Q501 511 504 508T506 499L447 12Q446 7 443 4T434 0H345Q340 0 337 3T335 12L339 44Q340 47 338 48T334 46Q287 -7 208 -7Q141 -7 97 30T53 136Q53 144 55 162L96
499Q97 504 100 507T109 511H199Q204 511 207 508T209 499L171 195Q170 189 170 176Q170 137 190 115T249 92Q292 92 322 120T358 195L395 499Q396 504 399 507ZM358 587T358 584Q358 580 355 578T347 575H283Q274 575 271 583L216 685Q215 687 215 690Q215 700
226 700H302Q313 700 316 692L357 589Q358 587 358 584Z" />
<glyph unicode="&#xfa;" glyph-name="uacute" horiz-adv-x="527" d="M396 504T399 507T408 511H496Q501 511 504 508T506 499L447 12Q446 7 443 4T434 0H345Q340 0 337 3T335 12L339 44Q340 47 338 48T334 46Q287 -7 208 -7Q141 -7 97 30T53 136Q53 144 55 162L96
499Q97 504 100 507T109 511H199Q204 511 207 508T209 499L171 195Q170 189 170 176Q170 137 190 115T249 92Q292 92 322 120T358 195L395 499Q396 504 399 507ZM262 575T260 579T262 589L328 692Q333 700 344 700H420Q429 700 429 693Q429 690 426 685L347 583Q341
575 332 575H268Q262 575 260 579Z" />
<glyph unicode="&#xfb;" glyph-name="ucircumflex" horiz-adv-x="527" d="M396 504T399 507T408 511H496Q501 511 504 508T506 499L447 12Q446 7 443 4T434 0H345Q340 0 337 3T335 12L339 44Q340 47 338 48T334 46Q287 -7 208 -7Q141 -7 97 30T53 136Q53 144 55
162L96 499Q97 504 100 507T109 511H199Q204 511 207 508T209 499L171 195Q170 189 170 176Q170 137 190 115T249 92Q292 92 322 120T358 195L395 499Q396 504 399 507ZM173 573T173 580Q173 584 177 588L263 693Q269 700 278 700H380Q388 700 392 693L453 588Q455
584 455 581Q455 573 445 573H377Q367 573 364 581L327 648Q325 650 323 650T320 648L266 581Q261 573 252 573H183Q173 573 173 580Z" />
<glyph unicode="&#xfc;" glyph-name="udieresis" horiz-adv-x="527" d="M396 504T399 507T408 511H496Q501 511 504 508T506 499L447 12Q446 7 443 4T434 0H345Q340 0 337 3T335 12L339 44Q340 47 338 48T334 46Q287 -7 208 -7Q141 -7 97 30T53 136Q53 144 55
162L96 499Q97 504 100 507T109 511H199Q204 511 207 508T209 499L171 195Q170 189 170 176Q170 137 190 115T249 92Q292 92 322 120T358 195L395 499Q396 504 399 507ZM380 586T363 603T346 647Q346 682 369 705T425 728Q452 728 468 712T485 668Q485 633 462
610T408 586Q380 586 363 603ZM197 586T180 603T163 647Q163 682 186 705T242 728Q269 728 285 712T302 668Q302 633 279 610T225 586Q197 586 180 603Z" />
<glyph unicode="&#xfd;" glyph-name="yacute" horiz-adv-x="474" d="M4 -199T2 -196T1 -187L10 -115Q11 -110 14 -107T23 -103H24Q64 -102 87 -95T128 -66T162 -3Q163 -1 162 3L63 498V502Q63 512 74 512H169Q174 512 177 509T181 502L235 150Q235 147 237 147T241
150L381 502Q384 512 396 512H488Q494 512 496 508T495 498L259 -28Q227 -99 199 -134T129 -184T13 -199H7Q4 -199 2 -196ZM236 582T234 586T236 596L302 699Q307 707 318 707H394Q403 707 403 700Q403 697 400 692L321 590Q315 582 306 582H242Q236 582 234 586Z"
/>
<glyph unicode="&#xfe;" glyph-name="thorn" horiz-adv-x="530" d="M501 363T501 332Q501 303 496 256Q486 178 471 138Q446 71 392 32T273 -8Q198 -8 165 46Q163 48 161 48T159 44L130 -188Q129 -193 126 -196T117 -200H28Q23 -200 20 -197T18 -188L125 688Q126
693 129 696T138 700H228Q233 700 236 697T238 688L211 472Q211 469 212 468T217 470Q261 519 333 519Q400 519 443 482T497 384Q501 363 501 332ZM365 180T369 198T379 256Q384 303 384 316Q384 329 380 347Q375 379 353 399T295 419Q261 419 236 401T197 352Q196
350 196 346L174 167Q174 166 174 165T174 161Q179 130 199 111T255 92Q290 92 318 112T358 164Q365 180 369 198Z" />
<glyph unicode="&#xff;" glyph-name="ydieresis" horiz-adv-x="474" d="M4 -199T2 -196T1 -187L10 -115Q11 -110 14 -107T23 -103H24Q64 -102 87 -95T128 -66T162 -3Q163 -1 162 3L63 498V502Q63 512 74 512H169Q174 512 177 509T181 502L235 150Q235 147 237
147T241 150L381 502Q384 512 396 512H488Q494 512 496 508T495 498L259 -28Q227 -99 199 -134T129 -184T13 -199H7Q4 -199 2 -196ZM354 593T337 610T320 654Q320 689 343 712T399 735Q426 735 442 719T459 675Q459 640 436 617T382 593Q354 593 337 610ZM171 593T154
610T137 654Q137 689 160 712T216 735Q243 735 259 719T276 675Q276 640 253 617T199 593Q171 593 154 610Z" />
<glyph unicode="&#x2013;" glyph-name="endash" horiz-adv-x="453" d="M47 233T44 236T42 245L51 321Q52 326 55 329T64 333H432Q437 333 440 330T442 321L433 245Q432 240 429 237T420 233H52Q47 233 44 236Z" />
<glyph unicode="&#x2014;" glyph-name="emdash" horiz-adv-x="648" d="M47 234T44 237T42 246L51 321Q52 326 55 329T64 333H627Q632 333 635 330T637 321L628 246Q627 241 624 238T615 234H52Q47 234 44 237Z" />
<glyph unicode="&#x2018;" glyph-name="quoteleft" horiz-adv-x="176" d="M48 482T46 486T47 496L147 691Q152 700 162 700H229Q234 700 236 697T237 687L158 492Q157 488 153 485T144 482H54Q48 482 46 486Z" />
<glyph unicode="&#x2019;" glyph-name="quoteright" horiz-adv-x="176" d="M234 700T235 696T235 686L134 491Q130 482 119 482H53Q48 482 46 485T45 495L124 690Q125 694 129 697T138 700H228Q234 700 235 696Z" />
<glyph unicode="&#x201a;" glyph-name="quotesinglbase" horiz-adv-x="582" d="M16 -91T20 -78L83 146Q86 157 97 157H174Q187 157 183 144L98 -81Q94 -91 83 -91H29Q16 -91 20 -78Z" />
<glyph unicode="&#x201c;" glyph-name="quotedblleft" horiz-adv-x="319" d="M48 482T46 486T46 496L139 690Q143 700 153 700H216Q229 700 225 687L155 492Q151 482 140 482H54Q48 482 46 486ZM205 482T203 485T203 496L295 690Q299 700 309 700H372Q385 700
381 687L311 492Q307 482 296 482H211Q205 482 203 485Z" />
<glyph unicode="&#x201d;" glyph-name="quotedblright" horiz-adv-x="319" d="M220 700T222 697T222 686L130 492Q127 482 116 482H53Q47 482 45 485T44 495L115 690Q119 700 130 700H214Q220 700 222 697ZM385 700T379 686L286 492Q283 482 272 482H209Q195 482
199 495L271 690Q275 700 286 700H371Q385 700 379 686Z" />
<glyph unicode="&#x201e;" glyph-name="quotedblbase" horiz-adv-x="334" d="M150 128T152 125T152 114L60 -80Q57 -90 46 -90H-17Q-23 -90 -25 -87T-26 -77L45 118Q49 128 60 128H144Q150 128 152 125ZM315 128T309 114L216 -80Q213 -90 202 -90H139Q125 -90
129 -77L201 118Q205 128 216 128H301Q315 128 309 114Z" />
<glyph unicode="&#x2022;" glyph-name="bullet" horiz-adv-x="304" d="M105 148T75 180T44 258Q44 296 63 328T115 378T183 397Q228 397 258 366T288 288Q288 252 269 220T218 168T152 148Q105 148 75 180Z" />
<glyph unicode="&#x2039;" glyph-name="guilsinglleft" horiz-adv-x="335" d="M252 120T252 117Q252 107 241 107H159Q149 107 146 115L64 273Q62 275 62 280Q62 285 66 289L187 447Q192 455 201 455H284Q293 455 293 448Q293 445 290 440L167 284Q165 280 166
278L251 122Q252 120 252 117Z" />
<glyph unicode="&#x203a;" glyph-name="guilsinglright" horiz-adv-x="357" d="M73 107T73 114Q73 118 76 122L198 278Q200 282 199 284L115 440Q114 442 114 445Q114 455 125 455H206Q216 455 219 447L301 289Q303 287 303 282Q303 277 299 273L178 115Q173 107
163 107H82Q73 107 73 114Z" />
</font>
</defs>
</svg>
